<svg xmlns="http://www.w3.org/2000/svg" version="1.1" xmlns:xlink="http://www.w3.org/1999/xlink" xmlns:svgjs="http://svgjs.dev/svgjs" viewBox="0 0 12.334588464542403 2.852981426624239"><g transform="matrix(1,0,0,1,2.568956845528146,0.47636680706211953)"><g><path d=" M 0.42 0.3284999999999999 C 0.42 0.34499999999999986 0.4335 0.3569999999999999 0.4455 0.3569999999999999 C 0.4635 0.3569999999999999 0.5805 0.27749999999999986 0.6045 0.25949999999999984 C 0.6165 0.25049999999999983 0.621 0.24299999999999988 0.621 0.22049999999999992 L 0.621 0.06449999999999978 C 0.621 0.02849999999999997 0.606 0.013499999999999845 0.5700000000000001 0.013499999999999845 L 0.063 0.013499999999999845 C 0.042 0.013499999999999845 0.03 0.025499999999999856 0.03 0.038999999999999924 C 0.03 0.07049999999999979 0.0945 0.10499999999999998 0.0945 0.16499999999999992 L 0.0945 0.9944999999999999 C 0.0945 1.0545 0.03 1.089 0.03 1.1204999999999998 C 0.03 1.134 0.042 1.146 0.063 1.146 L 0.327 1.146 C 0.34800000000000003 1.146 0.36 1.134 0.36 1.1204999999999998 C 0.36 1.089 0.2955 1.0545 0.2955 0.9944999999999999 L 0.2955 0.7665 L 0.468 0.6569999999999999 C 0.4905 0.6434999999999998 0.4965 0.6315 0.4965 0.6059999999999999 L 0.4965 0.46799999999999986 C 0.4965 0.4514999999999999 0.486 0.4364999999999999 0.468 0.4364999999999999 C 0.456 0.4364999999999999 0.4425 0.4424999999999999 0.429 0.4514999999999999 L 0.2955 0.5354999999999999 L 0.2955 0.17849999999999988 L 0.42 0.17849999999999988 M 1.1254609863281249 0.7424999999999999 L 1.2244609863281248 0.32099999999999984 L 1.296460986328125 0.6509999999999999 M 1.5769609863281249 0.9614999999999999 C 1.560460986328125 0.9015 1.375960986328125 0.16499999999999992 1.375960986328125 0.11849999999999983 C 1.375960986328125 0.08999999999999986 1.4149609863281247 0.058499999999999774 1.4149609863281247 0.04049999999999998 C 1.4149609863281247 0.0239999999999998 1.402960986328125 0.013499999999999845 1.3819609863281248 0.013499999999999845 L 1.0714609863281248 0.013499999999999845 C 1.050460986328125 0.013499999999999845 1.038460986328125 0.0239999999999998 1.038460986328125 0.04049999999999998 C 1.038460986328125 0.058499999999999774 1.0774609863281248 0.08999999999999986 1.0774609863281248 0.11849999999999983 C 1.0774609863281248 0.16499999999999992 0.8734609863281249 0.966 0.8614609863281248 1.0125 C 0.8479609863281249 1.065 0.7894609863281249 1.095 0.7894609863281249 1.119 C 0.7894609863281249 1.1355 0.8014609863281249 1.146 0.8224609863281249 1.146 L 1.0894609863281248 1.146 C 1.1134609863281248 1.146 1.1239609863281248 1.134 1.1239609863281248 1.119 C 1.1239609863281248 1.095 1.069960986328125 1.0755 1.069960986328125 1.017 L 1.069960986328125 0.9764999999999999 L 1.341460986328125 0.8294999999999999 C 1.341460986328125 0.8294999999999999 1.390960986328125 1.0319999999999998 1.390960986328125 1.0425 C 1.390960986328125 1.0785 1.351960986328125 1.095 1.351960986328125 1.119 C 1.351960986328125 1.134 1.362460986328125 1.146 1.386460986328125 1.146 L 1.632460986328125 1.146 C 1.6534609863281249 1.146 1.665460986328125 1.1355 1.665460986328125 1.119 C 1.665460986328125 1.095 1.600960986328125 1.053 1.5769609863281249 0.9614999999999999 M 2.1489014648437497 1.146 L 2.41440146484375 1.146 C 2.48640146484375 1.146 2.55690146484375 1.0844999999999998 2.55690146484375 1.023 L 2.55690146484375 0.714 C 2.55690146484375 0.6495 2.52990146484375 0.6194999999999999 2.48040146484375 0.5864999999999999 L 2.2299014648437496 0.4139999999999999 C 2.2059014648437496 0.3959999999999999 2.20140146484375 0.3839999999999999 2.20140146484375 0.3629999999999999 L 2.20140146484375 0.17849999999999988 L 2.34090146484375 0.17849999999999988 L 2.34090146484375 0.2789999999999999 C 2.34090146484375 0.31799999999999984 2.35290146484375 0.3314999999999999 2.36640146484375 0.3404999999999999 C 2.39190146484375 0.3569999999999999 2.4729014648437495 0.4139999999999999 2.50890146484375 0.4139999999999999 C 2.5239014648437497 0.4139999999999999 2.54190146484375 0.3959999999999999 2.54190146484375 0.3689999999999999 L 2.54190146484375 0.13649999999999984 C 2.54190146484375 0.07499999999999996 2.48340146484375 0.013499999999999845 2.3934014648437496 0.013499999999999845 L 2.14290146484375 0.013499999999999845 C 2.06340146484375 0.013499999999999845 2.00040146484375 0.053999999999999826 2.00040146484375 0.12899999999999978 L 2.00040146484375 0.4274999999999999 C 2.00040146484375 0.49349999999999994 2.03790146484375 0.5249999999999999 2.0814014648437498 0.5549999999999999 L 2.32890146484375 0.726 C 2.3484014648437497 0.7394999999999998 2.35590146484375 0.7529999999999999 2.35590146484375 0.7725 L 2.35590146484375 0.9809999999999999 L 2.20140146484375 0.9809999999999999 L 2.20140146484375 0.8399999999999999 C 2.20140146484375 0.8009999999999999 2.18940146484375 0.7874999999999999 2.17590146484375 0.7785 C 2.15190146484375 0.7605 2.0694014648437498 0.7049999999999998 2.03940146484375 0.7049999999999998 C 2.0184014648437496 0.7049999999999998 2.00040146484375 0.7214999999999999 2.00040146484375 0.7484999999999999 L 2.00040146484375 1.023 C 2.00040146484375 1.0844999999999998 2.06040146484375 1.146 2.1489014648437497 1.146 M 3.1138346191406248 1.146 L 3.4093346191406244 1.146 C 3.5008346191406248 1.146 3.5578346191406247 1.0785 3.5578346191406247 1.017 L 3.5578346191406247 0.14249999999999985 C 3.5578346191406247 0.07649999999999979 3.4993346191406247 0.013499999999999845 3.4093346191406244 0.013499999999999845 L 3.1138346191406248 0.013499999999999845 C 3.0343346191406244 0.013499999999999845 2.9713346191406247 0.05549999999999988 2.9713346191406247 0.1349999999999998 L 2.9713346191406247 1.0245 C 2.9713346191406247 1.1024999999999998 3.032834619140625 1.146 3.1138346191406248 1.146 M 3.1723346191406248 0.9704999999999999 L 3.1723346191406248 0.18899999999999983 C 3.1723346191406248 0.18299999999999994 3.1768346191406245 0.17849999999999988 3.1828346191406247 0.17849999999999988 L 3.3463346191406247 0.17849999999999988 C 3.3523346191406245 0.17849999999999988 3.3568346191406246 0.18299999999999994 3.3568346191406246 0.18899999999999983 L 3.3568346191406246 0.9704999999999999 C 3.3568346191406246 0.9749999999999999 3.3523346191406245 0.9809999999999999 3.3463346191406247 0.9809999999999999 L 3.1828346191406247 0.9809999999999999 C 3.1768346191406245 0.9809999999999999 3.1723346191406248 0.9749999999999999 3.1723346191406248 0.9704999999999999 M 4.348797070312499 0.17849999999999988 C 4.441797070312499 0.17849999999999988 4.441797070312499 0.1874999999999999 4.471797070312499 0.22049999999999992 C 4.4972970703124995 0.25049999999999983 4.509297070312499 0.26249999999999984 4.5287970703125 0.26249999999999984 C 4.5527970703125 0.26249999999999984 4.5692970703124995 0.24599999999999989 4.5692970703124995 0.22199999999999986 L 4.5692970703124995 0.038999999999999924 C 4.5692970703124995 0.014999999999999902 4.5527970703125 -2.220446049250313e-16 4.5287970703125 -2.220446049250313e-16 C 4.519797070312499 -2.220446049250313e-16 4.5047970703125 0.0014999999999998348 4.4792970703125 0.0044999999999999485 C 4.449297070312499 0.008999999999999897 4.4102970703125 0.013499999999999845 4.3862970703125 0.013499999999999845 L 4.1102970703125 0.013499999999999845 C 4.003797070312499 0.013499999999999845 3.9842970703124996 -2.220446049250313e-16 3.9602970703124996 -2.220446049250313e-16 C 3.9362970703124995 -2.220446049250313e-16 3.9272970703124996 0.010499999999999954 3.9272970703124996 0.034499999999999975 L 3.9272970703124996 0.23099999999999987 C 3.9272970703124996 0.2489999999999999 3.9377970703124996 0.26249999999999984 3.9542970703124993 0.26249999999999984 C 3.9752970703124997 0.26249999999999984 3.9887970703124993 0.24749999999999994 4.021797070312499 0.21899999999999986 C 4.0547970703125 0.1904999999999999 4.0637970703125 0.17849999999999988 4.1477970703125 0.17849999999999988 L 4.1477970703125 0.9944999999999999 C 4.1477970703125 1.0545 4.0832970703125 1.089 4.0832970703125 1.1204999999999998 C 4.0832970703125 1.134 4.095297070312499 1.146 4.116297070312499 1.146 L 4.3802970703124995 1.146 C 4.401297070312499 1.146 4.4132970703125 1.134 4.4132970703125 1.1204999999999998 C 4.4132970703125 1.089 4.348797070312499 1.0545 4.348797070312499 0.9944999999999999 M 5.174244140624999 0.16499999999999992 C 5.174244140624999 0.10499999999999998 5.238744140624999 0.07049999999999979 5.238744140624999 0.038999999999999924 C 5.238744140624999 0.025499999999999856 5.226744140624999 0.013499999999999845 5.205744140624999 0.013499999999999845 L 4.941744140624999 0.013499999999999845 C 4.920744140624999 0.013499999999999845 4.908744140624999 0.025499999999999856 4.908744140624999 0.038999999999999924 C 4.908744140624999 0.07049999999999979 4.973244140624999 0.10499999999999998 4.973244140624999 0.16499999999999992 L 4.973244140624999 0.9944999999999999 C 4.973244140624999 1.0545 4.908744140624999 1.089 4.908744140624999 1.1204999999999998 C 4.908744140624999 1.134 4.920744140624999 1.146 4.941744140624999 1.146 L 5.205744140624999 1.146 C 5.226744140624999 1.146 5.238744140624999 1.134 5.238744140624999 1.1204999999999998 C 5.238744140624999 1.089 5.174244140624999 1.0545 5.174244140624999 0.9944999999999999 M 6.194708789062499 0.7289999999999999 C 6.194708789062499 0.7124999999999999 6.1812087890625 0.7004999999999999 6.169208789062499 0.7004999999999999 C 6.151208789062499 0.7004999999999999 6.034208789062499 0.7799999999999999 6.010208789062499 0.7979999999999998 C 5.998208789062499 0.8069999999999999 5.9937087890625 0.8144999999999999 5.9937087890625 0.837 L 5.9937087890625 0.9614999999999999 C 5.9937087890625 0.9719999999999999 5.984708789062499 0.9809999999999999 5.9742087890625 0.9809999999999999 L 5.843708789062499 0.9809999999999999 C 5.8332087890625 0.9809999999999999 5.824208789062499 0.9719999999999999 5.824208789062499 0.9614999999999999 L 5.824208789062499 0.19799999999999984 C 5.824208789062499 0.1874999999999999 5.8332087890625 0.17849999999999988 5.843708789062499 0.17849999999999988 L 5.959208789062499 0.17849999999999988 C 5.9697087890625 0.17849999999999988 5.978708789062499 0.1874999999999999 5.978708789062499 0.19799999999999984 L 5.978708789062499 0.38849999999999985 C 5.978708789062499 0.4049999999999999 5.9922087890624995 0.4169999999999999 6.004208789062499 0.4169999999999999 C 6.022208789062499 0.4169999999999999 6.139208789062499 0.3374999999999999 6.163208789062499 0.3194999999999999 C 6.175208789062499 0.3104999999999999 6.1797087890624995 0.30299999999999994 6.1797087890624995 0.28049999999999986 L 6.1797087890624995 0.13649999999999984 C 6.1797087890624995 0.07499999999999996 6.119708789062499 0.013499999999999845 6.031208789062499 0.013499999999999845 L 5.765708789062499 0.013499999999999845 C 5.684708789062499 0.013499999999999845 5.623208789062499 0.053999999999999826 5.623208789062499 0.12899999999999978 L 5.623208789062499 1.0305 C 5.623208789062499 1.1055 5.684708789062499 1.146 5.765708789062499 1.146 L 6.046208789062499 1.146 C 6.137708789062499 1.146 6.194708789062499 1.0815 6.194708789062499 1.0245 M 7.323141943359374 1.119 C 7.323141943359374 1.0919999999999999 7.279641943359374 1.0875 7.239141943359375 1.0139999999999998 L 6.9766419433593745 0.5324999999999999 L 7.209141943359374 0.1469999999999999 C 7.240641943359375 0.09599999999999986 7.291641943359375 0.0674999999999999 7.291641943359375 0.04349999999999987 C 7.291641943359375 0.025499999999999856 7.279641943359374 0.013499999999999845 7.254141943359374 0.013499999999999845 L 6.997641943359374 0.013499999999999845 C 6.981141943359375 0.013499999999999845 6.966141943359375 0.0239999999999998 6.966141943359375 0.038999999999999924 C 6.966141943359375 0.05999999999999983 6.996141943359374 0.07499999999999996 6.996141943359374 0.10799999999999987 C 6.996141943359374 0.11399999999999988 6.988641943359375 0.12749999999999995 6.988641943359375 0.12749999999999995 L 6.829641943359374 0.4109999999999999 L 6.829641943359374 0.16499999999999992 C 6.829641943359374 0.10499999999999998 6.894141943359375 0.07049999999999979 6.894141943359375 0.038999999999999924 C 6.894141943359375 0.0239999999999998 6.8821419433593745 0.013499999999999845 6.8611419433593746 0.013499999999999845 L 6.597141943359374 0.013499999999999845 C 6.576141943359374 0.013499999999999845 6.564141943359375 0.025499999999999856 6.564141943359375 0.038999999999999924 C 6.564141943359375 0.07049999999999979 6.628641943359375 0.10499999999999998 6.628641943359375 0.16499999999999992 L 6.628641943359375 0.9944999999999999 C 6.628641943359375 1.0545 6.564141943359375 1.089 6.564141943359375 1.1204999999999998 C 6.564141943359375 1.134 6.576141943359374 1.146 6.597141943359374 1.146 L 6.8611419433593746 1.146 C 6.8821419433593745 1.146 6.894141943359375 1.134 6.894141943359375 1.1204999999999998 C 6.894141943359375 1.089 6.829641943359374 1.0545 6.829641943359374 0.9944999999999999 L 6.829641943359374 0.7665 L 6.849141943359375 0.7304999999999999 L 7.021641943359374 1.0379999999999998 C 7.041141943359374 1.0755 6.996141943359374 1.0875 6.996141943359374 1.1204999999999998 C 6.996141943359374 1.134 7.008141943359375 1.146 7.029141943359375 1.146 L 7.290141943359375 1.146 C 7.311141943359375 1.146 7.323141943359374 1.1324999999999998 7.323141943359374 1.119 M 8.220608056640623 1.146 C 8.256608056640625 1.146 8.271608056640623 1.131 8.271608056640623 1.095 L 8.271608056640623 0.7785 C 8.271608056640623 0.7619999999999999 8.258108056640625 0.7499999999999999 8.246108056640624 0.7499999999999999 C 8.228108056640624 0.7499999999999999 8.111108056640624 0.8294999999999999 8.087108056640623 0.8474999999999999 C 8.075108056640625 0.8564999999999999 8.070608056640625 0.8639999999999999 8.070608056640625 0.8864999999999998 L 8.070608056640625 0.9809999999999999 L 7.947608056640624 0.9809999999999999 C 7.937108056640624 0.9809999999999999 7.928108056640624 0.9734999999999999 7.928108056640624 0.9629999999999999 L 7.928108056640624 0.7949999999999999 L 8.100608056640624 0.6854999999999999 C 8.123108056640625 0.6719999999999999 8.129108056640623 0.6599999999999999 8.129108056640623 0.6344999999999998 L 8.129108056640623 0.49649999999999994 C 8.129108056640623 0.47999999999999987 8.118608056640625 0.46499999999999986 8.100608056640624 0.46499999999999986 C 8.088608056640624 0.46499999999999986 8.075108056640625 0.47099999999999986 8.061608056640624 0.47999999999999987 L 7.928108056640624 0.564 L 7.928108056640624 0.1964999999999999 C 7.928108056640624 0.1874999999999999 7.937108056640624 0.17849999999999988 7.947608056640624 0.17849999999999988 L 8.070608056640625 0.17849999999999988 L 8.070608056640625 0.3434999999999999 C 8.070608056640625 0.3599999999999999 8.084108056640623 0.3719999999999999 8.096108056640624 0.3719999999999999 C 8.114108056640625 0.3719999999999999 8.231108056640624 0.29249999999999987 8.255108056640625 0.27449999999999986 C 8.267108056640623 0.26549999999999985 8.271608056640623 0.2579999999999999 8.271608056640623 0.23549999999999993 L 8.271608056640623 0.06449999999999978 C 8.271608056640623 0.02849999999999997 8.256608056640625 0.013499999999999845 8.220608056640623 0.013499999999999845 L 7.695608056640624 0.013499999999999845 C 7.674608056640624 0.013499999999999845 7.662608056640624 0.025499999999999856 7.662608056640624 0.038999999999999924 C 7.662608056640624 0.07049999999999979 7.727108056640624 0.10499999999999998 7.727108056640624 0.16499999999999992 L 7.727108056640624 0.9944999999999999 C 7.727108056640624 1.0545 7.662608056640624 1.089 7.662608056640624 1.1204999999999998 C 7.662608056640624 1.134 7.674608056640624 1.146 7.695608056640624 1.146 M 9.062563183593749 0.17849999999999988 C 9.155563183593749 0.17849999999999988 9.155563183593749 0.1874999999999999 9.185563183593748 0.22049999999999992 C 9.211063183593748 0.25049999999999983 9.223063183593748 0.26249999999999984 9.242563183593749 0.26249999999999984 C 9.266563183593748 0.26249999999999984 9.283063183593748 0.24599999999999989 9.283063183593748 0.22199999999999986 L 9.283063183593748 0.038999999999999924 C 9.283063183593748 0.014999999999999902 9.266563183593748 -2.220446049250313e-16 9.242563183593749 -2.220446049250313e-16 C 9.233563183593748 -2.220446049250313e-16 9.218563183593748 0.0014999999999998348 9.193063183593749 0.0044999999999999485 C 9.16306318359375 0.008999999999999897 9.124063183593748 0.013499999999999845 9.100063183593749 0.013499999999999845 L 8.824063183593749 0.013499999999999845 C 8.717563183593748 0.013499999999999845 8.698063183593748 -2.220446049250313e-16 8.674063183593749 -2.220446049250313e-16 C 8.650063183593748 -2.220446049250313e-16 8.641063183593749 0.010499999999999954 8.641063183593749 0.034499999999999975 L 8.641063183593749 0.23099999999999987 C 8.641063183593749 0.2489999999999999 8.651563183593748 0.26249999999999984 8.668063183593748 0.26249999999999984 C 8.689063183593749 0.26249999999999984 8.702563183593748 0.24749999999999994 8.735563183593749 0.21899999999999986 C 8.768563183593749 0.1904999999999999 8.777563183593749 0.17849999999999988 8.861563183593749 0.17849999999999988 L 8.861563183593749 0.9944999999999999 C 8.861563183593749 1.0545 8.797063183593748 1.089 8.797063183593748 1.1204999999999998 C 8.797063183593748 1.134 8.809063183593748 1.146 8.830063183593749 1.146 L 9.094063183593748 1.146 C 9.11506318359375 1.146 9.127063183593748 1.134 9.127063183593748 1.1204999999999998 C 9.127063183593748 1.089 9.062563183593749 1.0545 9.062563183593749 0.9944999999999999" fill="url(#gradient-fbfd2ad8-1bf1-46ec-b42a-72d5c83e8881)" fill-rule="nonzero"></path></g><g><path d=" M 0.22227750000000002 1.9033696875 L 0.064935 1.5200034375 L 0.021853125 1.4981503125 L 0.021853125 1.4881603124999998 L 0.177946875 1.4881603124999998 L 0.177946875 1.4981503125 L 0.124250625 1.5212521875 L 0.124250625 1.5243740625 L 0.24100875000000002 1.8103378125 L 0.24413062500000002 1.8103378125 L 0.360264375 1.5218765625 L 0.360264375 1.5193790624999999 L 0.309065625 1.4981503125 L 0.309065625 1.4881603124999998 L 0.440184375 1.4881603124999998 L 0.440184375 1.4981503125 L 0.40459500000000004 1.5168815625 L 0.24413062500000002 1.9033696875 L 0.22227750000000002 1.9033696875 M 0.5088595275878907 1.9002478125 L 0.5088595275878907 1.8902578125 L 0.5588095275878906 1.8652828125 L 0.5588095275878906 1.5231253125 L 0.5088595275878907 1.4981503125 L 0.5088595275878907 1.4881603124999998 L 0.8141789025878906 1.4881603124999998 L 0.8141789025878906 1.5955528125 L 0.8041889025878906 1.5955528125 L 0.7654776525878906 1.5225009374999998 L 0.6150032775878906 1.5225009374999998 L 0.6150032775878906 1.6704778125 L 0.7211470275878906 1.6704778125 L 0.7523657775878907 1.6186546874999999 L 0.7623557775878906 1.6186546874999999 L 0.7623557775878906 1.7553928125 L 0.7523657775878907 1.7553928125 L 0.7211470275878906 1.7048184375 L 0.6150032775878906 1.7048184375 L 0.6150032775878906 1.8659071875 L 0.7829601525878906 1.8659071875 L 0.8216714025878906 1.7866115624999999 L 0.8316614025878906 1.7866115624999999 L 0.8316614025878906 1.9002478125 L 0.5088595275878907 1.9002478125 M 0.919059878540039 1.9002478125 L 0.919059878540039 1.8902578125 L 0.9690098785400391 1.8652828125 L 0.9690098785400391 1.5243740625 L 0.919684253540039 1.4981503125 L 0.919684253540039 1.4881603124999998 L 1.011467378540039 1.4881603124999998 L 1.2499786285400392 1.7878603124999999 L 1.2499786285400392 1.5218765625 L 1.187541128540039 1.4981503125 L 1.187541128540039 1.4881603124999998 L 1.343010503540039 1.4881603124999998 L 1.343010503540039 1.4981503125 L 1.2936848785400392 1.5225009374999998 L 1.2936848785400392 1.9033696875 L 1.2705830035400392 1.9033696875 L 1.012716128540039 1.5780703125 L 1.012716128540039 1.8659071875 L 1.0751536285400392 1.8902578125 L 1.0751536285400392 1.9002478125 L 0.919059878540039 1.9002478125 M 1.5066037655639648 1.9002478125 L 1.5066037655639648 1.8902578125 L 1.569041265563965 1.8652828125 L 1.569041265563965 1.5225009374999998 L 1.4672681405639647 1.5225009374999998 L 1.424810640563965 1.6142840625 L 1.4148206405639647 1.6142840625 L 1.4148206405639647 1.4881603124999998 L 1.7794556405639648 1.4881603124999998 L 1.7794556405639648 1.6142840625 L 1.7694656405639648 1.6142840625 L 1.7270081405639648 1.5225009374999998 L 1.6252350155639648 1.5225009374999998 L 1.6252350155639648 1.8652828125 L 1.687672515563965 1.8902578125 L 1.687672515563965 1.9002478125 L 1.5066037655639648 1.9002478125 M 1.8543876525878904 1.9002478125 L 1.8543876525878904 1.8902578125 L 1.9043376525878906 1.8652828125 L 1.9043376525878906 1.5231253125 L 1.8543876525878904 1.4981503125 L 1.8543876525878904 1.4881603124999998 L 2.1597070275878907 1.4881603124999998 L 2.1597070275878907 1.5955528125 L 2.1497170275878905 1.5955528125 L 2.1110057775878905 1.5225009374999998 L 1.9605314025878906 1.5225009374999998 L 1.9605314025878906 1.6704778125 L 2.0666751525878904 1.6704778125 L 2.0978939025878907 1.6186546874999999 L 2.1078839025878904 1.6186546874999999 L 2.1078839025878904 1.7553928125 L 2.0978939025878907 1.7553928125 L 2.0666751525878904 1.7048184375 L 1.9605314025878906 1.7048184375 L 1.9605314025878906 1.8659071875 L 2.1284882775878904 1.8659071875 L 2.1671995275878904 1.7866115624999999 L 2.1771895275878905 1.7866115624999999 L 2.1771895275878905 1.9002478125 L 1.8543876525878904 1.9002478125 M 2.430047378540039 1.9002478125 L 2.430047378540039 1.8902578125 L 2.479997378540039 1.8652828125 L 2.479997378540039 1.5231253125 L 2.430047378540039 1.4981503125 L 2.430047378540039 1.4881603124999998 L 2.612989253540039 1.4881603124999998 Q 2.681670503540039 1.4881603124999998 2.730371753540039 1.5125109374999999 Q 2.779073003540039 1.5368615625 2.804360191040039 1.5793190625 Q 2.829647378540039 1.6217765625 2.829647378540039 1.6754728125 Q 2.829647378540039 1.7241740625 2.8131014410400392 1.7653828125 Q 2.796555503540039 1.8065915625 2.766585503540039 1.8365615625 Q 2.736615503540039 1.8665315625 2.696343316040039 1.8833896875 Q 2.656071128540039 1.9002478125 2.608618628540039 1.9002478125 L 2.430047378540039 1.9002478125 M 2.5986286285400393 1.5225009374999998 L 2.536191128540039 1.5225009374999998 L 2.536191128540039 1.8659071875 L 2.607994253540039 1.8659071875 Q 2.6579442535400393 1.8659071875 2.694470191040039 1.8449906249999999 Q 2.7309961285400393 1.8240740625 2.750663941040039 1.785675 Q 2.770331753540039 1.7472759375 2.770331753540039 1.6948284375 Q 2.770331753540039 1.6430053125 2.750351753540039 1.603981875 Q 2.730371753540039 1.5649584375 2.6919726910400392 1.5437296875 Q 2.6535736285400393 1.5225009374999998 2.5986286285400393 1.5225009374999998 M 2.9201969970703123 1.9002478125 L 2.9201969970703123 1.8902578125 L 2.9701469970703123 1.8652828125 L 2.9701469970703123 1.5231253125 L 2.9201969970703123 1.4981503125 L 2.9201969970703123 1.4881603124999998 L 3.2255163720703126 1.4881603124999998 L 3.2255163720703126 1.5955528125 L 3.2155263720703124 1.5955528125 L 3.1768151220703125 1.5225009374999998 L 3.0263407470703125 1.5225009374999998 L 3.0263407470703125 1.6704778125 L 3.1324844970703123 1.6704778125 L 3.1637032470703126 1.6186546874999999 L 3.1736932470703123 1.6186546874999999 L 3.1736932470703123 1.7553928125 L 3.1637032470703126 1.7553928125 L 3.1324844970703123 1.7048184375 L 3.0263407470703125 1.7048184375 L 3.0263407470703125 1.8659071875 L 3.1942976220703123 1.8659071875 L 3.2330088720703123 1.7866115624999999 L 3.2429988720703125 1.7866115624999999 L 3.2429988720703125 1.9002478125 L 2.9201969970703123 1.9002478125 M 3.575152348022461 1.9002478125 L 3.575152348022461 1.8902578125 L 3.637589848022461 1.8652828125 L 3.637589848022461 1.5225009374999998 L 3.535816723022461 1.5225009374999998 L 3.493359223022461 1.6142840625 L 3.483369223022461 1.6142840625 L 3.483369223022461 1.4881603124999998 L 3.848004223022461 1.4881603124999998 L 3.848004223022461 1.6142840625 L 3.838014223022461 1.6142840625 L 3.795556723022461 1.5225009374999998 L 3.693783598022461 1.5225009374999998 L 3.693783598022461 1.8652828125 L 3.756221098022461 1.8902578125 L 3.756221098022461 1.9002478125 L 3.575152348022461 1.9002478125 M 3.926058110046387 1.9002478125 L 3.926058110046387 1.8902578125 L 3.976008110046387 1.8652828125 L 3.976008110046387 1.5231253125 L 3.926058110046387 1.4981503125 L 3.926058110046387 1.4881603124999998 L 4.082151860046387 1.4881603124999998 L 4.082151860046387 1.4981503125 L 4.032201860046387 1.5231253125 L 4.032201860046387 1.8652828125 L 4.082151860046387 1.8902578125 L 4.082151860046387 1.9002478125 L 3.926058110046387 1.9002478125 M 4.38186100616455 1.9064915625 Q 4.3181747561645505 1.9064915625 4.27197100616455 1.8802678124999999 Q 4.225767256164551 1.8540440624999999 4.200792256164551 1.808776875 Q 4.17581725616455 1.7635096875 4.17581725616455 1.7054428124999998 Q 4.17581725616455 1.6611121875 4.192987568664551 1.6208399999999998 Q 4.210157881164551 1.5805678125 4.239815693664551 1.5493490625 Q 4.269473506164551 1.5181303124999999 4.308496943664551 1.5000234375 Q 4.347520381164551 1.4819165625 4.3912266311645505 1.4819165625 Q 4.42244538116455 1.4819165625 4.444298506164551 1.4859749999999998 Q 4.466151631164551 1.4900334375 4.483321943664551 1.4965893749999999 Q 4.50049225616455 1.5031453125 4.517974756164551 1.5118865625 L 4.521096631164551 1.6211521875 L 4.50985788116455 1.6211521875 L 4.471771006164551 1.5449784375 Q 4.448044756164551 1.5281203125 4.4302500686645505 1.5206278125 Q 4.412455381164551 1.5131353125 4.389977881164551 1.5131353125 Q 4.34502288116455 1.5131353125 4.309745693664551 1.5356128125 Q 4.274468506164551 1.5580903125 4.254176318664551 1.5971137499999999 Q 4.233884131164551 1.6361371875 4.233884131164551 1.6867115625 Q 4.233884131164551 1.7460271875 4.253551943664551 1.7881725 Q 4.273219756164551 1.8303178125 4.3066238186645505 1.852483125 Q 4.34002788116455 1.8746484374999999 4.380612256164551 1.8746484374999999 Q 4.414952881164551 1.8746484374999999 4.438366943664551 1.864970625 Q 4.461781006164551 1.8552928124999999 4.479887881164551 1.8434296875 L 4.517350381164551 1.7766215625 L 4.52796475616455 1.7766215625 L 4.521096631164551 1.8758971875 Q 4.502989756164551 1.8852628125 4.48394631866455 1.8921309375 Q 4.464902881164551 1.8989990625 4.440552256164551 1.9027453125 Q 4.416201631164551 1.9064915625 4.38186100616455 1.9064915625 M 4.632243612670898 1.9002478125 L 4.632243612670898 1.8902578125 L 4.682193612670898 1.8652828125 L 4.682193612670898 1.5231253125 L 4.632243612670898 1.4981503125 L 4.632243612670898 1.4881603124999998 L 4.788337362670898 1.4881603124999998 L 4.788337362670898 1.4981503125 L 4.738387362670898 1.5231253125 L 4.738387362670898 1.8652828125 L 4.788337362670898 1.8902578125 L 4.788337362670898 1.9002478125 L 4.632243612670898 1.9002478125 M 4.739011737670898 1.6892090625 L 4.911963612670898 1.5193790624999999 L 4.867632987670898 1.4981503125 L 4.867632987670898 1.4881603124999998 L 4.998751737670898 1.4881603124999998 L 4.998751737670898 1.4981503125 L 4.960040487670898 1.5131353125 L 4.795829862670898 1.6742240625 L 4.993132362670898 1.8740240625 L 5.031219237670898 1.8902578125 L 5.031219237670898 1.9002478125 L 4.9413092376708985 1.9002478125 L 4.739011737670898 1.6892090625 M 5.087409329223632 1.9002478125 L 5.087409329223632 1.8902578125 L 5.137359329223632 1.8652828125 L 5.137359329223632 1.5231253125 L 5.087409329223632 1.4981503125 L 5.087409329223632 1.4881603124999998 L 5.392728704223632 1.4881603124999998 L 5.392728704223632 1.5955528125 L 5.382738704223632 1.5955528125 L 5.344027454223633 1.5225009374999998 L 5.193553079223633 1.5225009374999998 L 5.193553079223633 1.6704778125 L 5.299696829223633 1.6704778125 L 5.330915579223633 1.6186546874999999 L 5.340905579223633 1.6186546874999999 L 5.340905579223633 1.7553928125 L 5.330915579223633 1.7553928125 L 5.299696829223633 1.7048184375 L 5.193553079223633 1.7048184375 L 5.193553079223633 1.8659071875 L 5.361509954223632 1.8659071875 L 5.400221204223633 1.7866115624999999 L 5.410211204223632 1.7866115624999999 L 5.410211204223632 1.9002478125 L 5.087409329223632 1.9002478125 M 5.580027180175781 1.9002478125 L 5.580027180175781 1.8902578125 L 5.642464680175781 1.8652828125 L 5.642464680175781 1.5225009374999998 L 5.540691555175781 1.5225009374999998 L 5.498234055175781 1.6142840625 L 5.488244055175781 1.6142840625 L 5.488244055175781 1.4881603124999998 L 5.852879055175781 1.4881603124999998 L 5.852879055175781 1.6142840625 L 5.842889055175781 1.6142840625 L 5.8004315551757815 1.5225009374999998 L 5.698658430175781 1.5225009374999998 L 5.698658430175781 1.8652828125 L 5.761095930175781 1.8902578125 L 5.761095930175781 1.9002478125 L 5.580027180175781 1.9002478125 M 6.090148567199706 1.9002478125 L 6.090148567199706 1.8902578125 L 6.140098567199706 1.8652828125 L 6.140098567199706 1.5231253125 L 6.090148567199706 1.4981503125 L 6.090148567199706 1.4881603124999998 L 6.395467942199706 1.4881603124999998 L 6.395467942199706 1.5955528125 L 6.3854779421997065 1.5955528125 L 6.346766692199706 1.5225009374999998 L 6.196292317199706 1.5225009374999998 L 6.196292317199706 1.6704778125 L 6.302436067199706 1.6704778125 L 6.333654817199706 1.6186546874999999 L 6.343644817199706 1.6186546874999999 L 6.343644817199706 1.7553928125 L 6.333654817199706 1.7553928125 L 6.302436067199706 1.7048184375 L 6.196292317199706 1.7048184375 L 6.196292317199706 1.8659071875 L 6.364249192199706 1.8659071875 L 6.402960442199706 1.7866115624999999 L 6.412950442199707 1.7866115624999999 L 6.412950442199707 1.9002478125 L 6.090148567199706 1.9002478125 M 6.500348918151855 1.9002478125 L 6.500348918151855 1.8902578125 L 6.550298918151855 1.8652828125 L 6.550298918151855 1.5243740625 L 6.500973293151855 1.4981503125 L 6.500973293151855 1.4881603124999998 L 6.592756418151855 1.4881603124999998 L 6.831267668151854 1.7878603124999999 L 6.831267668151854 1.5218765625 L 6.768830168151855 1.4981503125 L 6.768830168151855 1.4881603124999998 L 6.924299543151855 1.4881603124999998 L 6.924299543151855 1.4981503125 L 6.874973918151855 1.5225009374999998 L 6.874973918151855 1.9033696875 L 6.851872043151855 1.9033696875 L 6.594005168151854 1.5780703125 L 6.594005168151854 1.8659071875 L 6.656442668151855 1.8902578125 L 6.656442668151855 1.9002478125 L 6.500348918151855 1.9002478125 M 7.17093468017578 1.9002478125 L 7.17093468017578 1.8902578125 L 7.22088468017578 1.8652828125 L 7.22088468017578 1.5231253125 L 7.17093468017578 1.4981503125 L 7.17093468017578 1.4881603124999998 L 7.33327218017578 1.4881603124999998 L 7.33327218017578 1.4981503125 L 7.27707843017578 1.5231253125 L 7.27707843017578 1.8659071875 L 7.42880155517578 1.8659071875 L 7.471259055175779 1.7616365625 L 7.4812490551757795 1.7616365625 L 7.4812490551757795 1.9002478125 L 7.17093468017578 1.9002478125 M 7.568667347717283 1.9002478125 L 7.568667347717283 1.8902578125 L 7.618617347717284 1.8652828125 L 7.618617347717284 1.5231253125 L 7.568667347717283 1.4981503125 L 7.568667347717283 1.4881603124999998 L 7.724761097717283 1.4881603124999998 L 7.724761097717283 1.4981503125 L 7.674811097717283 1.5231253125 L 7.674811097717283 1.8652828125 L 7.724761097717283 1.8902578125 L 7.724761097717283 1.9002478125 L 7.568667347717283 1.9002478125 M 8.026343368835446 1.9064915625 Q 7.966403368835447 1.9064915625 7.919263056335447 1.8802678124999999 Q 7.8721227438354475 1.8540440624999999 7.845274618835448 1.808776875 Q 7.818426493835447 1.7635096875 7.818426493835447 1.7054428124999998 Q 7.818426493835447 1.6573659374999998 7.835596806335447 1.6167815625 Q 7.852767118835447 1.5761971875 7.8836736813354475 1.545915 Q 7.914580243835447 1.5156328124999998 7.9545402438354476 1.4987746874999999 Q 7.994500243835447 1.4819165625 8.040703993835447 1.4819165625 Q 8.073171493835448 1.4819165625 8.096273368835448 1.4856628125 Q 8.119375243835448 1.4894090625 8.137482118835447 1.4962771875 Q 8.155588993835448 1.5031453125 8.173695868835447 1.5118865625 L 8.176817743835448 1.6149084375 L 8.166827743835448 1.6149084375 L 8.126243368835448 1.5449784375 Q 8.100019618835447 1.5268715625 8.081600556335447 1.5200034375 Q 8.063181493835447 1.5131353125 8.039455243835448 1.5131353125 Q 7.991378368835448 1.5131353125 7.953915868835447 1.5340518749999998 Q 7.916453368835447 1.5549684375 7.895224618835448 1.591494375 Q 7.873995868835447 1.6280203125 7.873995868835447 1.6742240625 Q 7.873995868835447 1.7366615625 7.896785556335447 1.7803678125 Q 7.919575243835447 1.8240740625 7.958286493835447 1.8471759374999999 Q 7.996997743835447 1.8702778125 8.044450243835447 1.8702778125 Q 8.065054618835447 1.8702778125 8.084098056335447 1.8677803124999999 Q 8.103141493835448 1.8652828125 8.123745868835448 1.8571659375 L 8.123745868835448 1.7541440625 L 8.068176493835447 1.7291690625 L 8.068176493835447 1.7191790624999999 L 8.223021493835446 1.7191790624999999 L 8.223021493835446 1.7291690625 L 8.179939618835448 1.7560171875 L 8.179939618835448 1.8540440624999999 Q 8.151218368835448 1.8777703125 8.109073056335447 1.8921309375 Q 8.066927743835448 1.9064915625 8.026343368835446 1.9064915625 M 8.297949847412108 1.9002478125 L 8.297949847412108 1.8902578125 L 8.347899847412107 1.8652828125 L 8.347899847412107 1.5243740625 L 8.298574222412107 1.4981503125 L 8.298574222412107 1.4881603124999998 L 8.390357347412108 1.4881603124999998 L 8.628868597412108 1.7878603124999999 L 8.628868597412108 1.5218765625 L 8.566431097412108 1.4981503125 L 8.566431097412108 1.4881603124999998 L 8.721900472412107 1.4881603124999998 L 8.721900472412107 1.4981503125 L 8.672574847412108 1.5225009374999998 L 8.672574847412108 1.9033696875 L 8.649472972412108 1.9033696875 L 8.391606097412108 1.5780703125 L 8.391606097412108 1.8659071875 L 8.454043597412108 1.8902578125 L 8.454043597412108 1.9002478125 L 8.297949847412108 1.9002478125 M 8.799948262023923 1.9002478125 L 8.799948262023923 1.8902578125 L 8.849898262023924 1.8652828125 L 8.849898262023924 1.5231253125 L 8.799948262023923 1.4981503125 L 8.799948262023923 1.4881603124999998 L 9.105267637023923 1.4881603124999998 L 9.105267637023923 1.5955528125 L 9.095277637023923 1.5955528125 L 9.056566387023924 1.5225009374999998 L 8.906092012023922 1.5225009374999998 L 8.906092012023922 1.6704778125 L 9.012235762023924 1.6704778125 L 9.043454512023922 1.6186546874999999 L 9.053444512023923 1.6186546874999999 L 9.053444512023923 1.7553928125 L 9.043454512023922 1.7553928125 L 9.012235762023924 1.7048184375 L 8.906092012023922 1.7048184375 L 8.906092012023922 1.8659071875 L 9.074048887023924 1.8659071875 L 9.112760137023923 1.7866115624999999 L 9.122750137023923 1.7866115624999999 L 9.122750137023923 1.9002478125 L 8.799948262023923 1.9002478125" fill="#ffffff" fill-rule="nonzero"></path></g><g clip-path="url(#SvgjsClipPath1001)"><g clip-path="url(#b842e3da5-ad04-482c-897f-841b95bd8b16a5f04e1f-e718-4f54-a905-54095c30d93e)"><path d=" M -1.4200550167193007 0.5786055442797136 C -1.4131091369118542 0.5596028979270715 -1.3932074671089576 0.5439623529705871 -1.3739831437411842 0.5416347443117089 L -1.361409130827349 0.5071023915101481 C -1.3789339304124493 0.5047624674615403 -1.387456180105274 0.4891219225050559 -1.3805718772464748 0.4700700145934958 C -1.3736383128287577 0.4510673682408538 -1.3537243276361317 0.43542682328436944 -1.3345000042683584 0.43309921462549106 L -1.3219259913545234 0.39856686182393036 C -1.3394507909396234 0.3962269377753224 -1.3479853560221775 0.38058639281883805 -1.341039476214731 0.361534484907278 C -1.3340935964072842 0.342531838554636 -1.314191926604388 0.3268912935981516 -1.2949676032366144 0.3245636849392733 L -1.2852384453502974 0.29787623539541375 L -1.9742229237680275 0.29787623539541375 L -1.9839028200954265 0.3245636849392733 C -1.9663780205103263 0.32689129359815167 -1.9578434554277722 0.34253183855463604 -1.9647770198454895 0.361534484907278 C -1.971722899652936 0.38058639281883816 -1.9916368848455621 0.39622693777532253 -2.0108612082133352 0.39856686182393036 L -2.0234352211271704 0.4330992146254911 C -2.00591042154207 0.43542682328436944 -1.997375856459516 0.4510673682408538 -2.004260159318315 0.47007001459349584 C -2.011206039125762 0.4891219225050559 -2.0311077089286584 0.5047624674615403 -2.050332032296432 0.5071023915101482 L -2.0629060452102665 0.5416347443117089 C -2.045393561014896 0.5439623529705873 -2.036858995932342 0.5596028979270716 -2.043792560350059 0.5786055442797137 C -2.0507384401575055 0.5976081906323557 -2.070640109960402 0.6133103125374876 -2.089876748717905 0.6156379211963661 L -2.0996059066042223 0.642313055350496 L -1.4106091127967626 0.642313055350496 L -1.4009415318590932 0.615637921196366 C -1.4184663314441932 0.6133103125374876 -1.4269885811370178 0.5976574521912738 -1.4200550167193007 0.5786055442797136" fill="#f68712" transform="matrix(1,0,0,1,0,0)" fill-rule="nonzero" stroke-dasharray="none" stroke-miterlimit="10" stroke-linejoin="miter" stroke-linecap="butt" stroke-width="0.003559147631829904" stroke="#f68712"></path></g><g clip-path="url(#e842e3da5-ad04-482c-897f-841b95bd8b16a5f04e1f-e718-4f54-a905-54095c30d93e)"><path d=" M -1.8462537090886346 0.2969525811657001 L -1.971772161211854 0.6432490249699392" fill="none" transform="matrix(1,0,0,1,0,0)" fill-rule="nonzero" stroke-dasharray="none" stroke-miterlimit="10" stroke-linejoin="miter" stroke-linecap="butt" stroke-width="0.017808053548879037" stroke="#f68712"></path></g><g clip-path="url(#f842e3da5-ad04-482c-897f-841b95bd8b16a5f04e1f-e718-4f54-a905-54095c30d93e)"><path d=" M -1.8129282644805664 0.2969525811657001 L -1.9384467166037858 0.6432490249699392" fill="none" transform="matrix(1,0,0,1,0,0)" fill-rule="nonzero" stroke-dasharray="none" stroke-miterlimit="10" stroke-linejoin="miter" stroke-linecap="butt" stroke-width="0.017808053548879037" stroke="#f68712"></path></g><g clip-path="url(#h842e3da5-ad04-482c-897f-841b95bd8b16a5f04e1f-e718-4f54-a905-54095c30d93e)"><path d=" M -1.779602819872498 0.2969525811657001 L -1.9051212719957173 0.6432490249699392" fill="none" transform="matrix(1,0,0,1,0,0)" fill-rule="nonzero" stroke-dasharray="none" stroke-miterlimit="10" stroke-linejoin="miter" stroke-linecap="butt" stroke-width="0.017808053548879037" stroke="#f68712"></path></g><g clip-path="url(#j842e3da5-ad04-482c-897f-841b95bd8b16a5f04e1f-e718-4f54-a905-54095c30d93e)"><path d=" M -1.7462896906541594 0.2969525811657001 L -1.8718081427773787 0.6432490249699392" fill="none" transform="matrix(1,0,0,1,0,0)" fill-rule="nonzero" stroke-dasharray="none" stroke-miterlimit="10" stroke-linejoin="miter" stroke-linecap="butt" stroke-width="0.017808053548879037" stroke="#f68712"></path></g><g clip-path="url(#k842e3da5-ad04-482c-897f-841b95bd8b16a5f04e1f-e718-4f54-a905-54095c30d93e)"><path d=" M -1.7129642460460912 0.2969525811657001 L -1.8384826981693103 0.6432490249699392" fill="none" transform="matrix(1,0,0,1,0,0)" fill-rule="nonzero" stroke-dasharray="none" stroke-miterlimit="10" stroke-linejoin="miter" stroke-linecap="butt" stroke-width="0.017808053548879037" stroke="#f68712"></path></g><g clip-path="url(#m842e3da5-ad04-482c-897f-841b95bd8b16a5f04e1f-e718-4f54-a905-54095c30d93e)"><path d=" M -1.679638801438023 0.2969525811657001 L -1.8051572535612421 0.6432490249699392" fill="none" transform="matrix(1,0,0,1,0,0)" fill-rule="nonzero" stroke-dasharray="none" stroke-miterlimit="10" stroke-linejoin="miter" stroke-linecap="butt" stroke-width="0.017808053548879037" stroke="#f68712"></path></g><g clip-path="url(#n842e3da5-ad04-482c-897f-841b95bd8b16a5f04e1f-e718-4f54-a905-54095c30d93e)"><path d=" M -1.6463133568299546 0.2969525811657001 L -1.771831808953174 0.6432490249699392" fill="none" transform="matrix(1,0,0,1,0,0)" fill-rule="nonzero" stroke-dasharray="none" stroke-miterlimit="10" stroke-linejoin="miter" stroke-linecap="butt" stroke-width="0.017808053548879037" stroke="#f68712"></path></g><g clip-path="url(#o842e3da5-ad04-482c-897f-841b95bd8b16a5f04e1f-e718-4f54-a905-54095c30d93e)"><path d=" M -1.613000227611616 0.2969525811657001 L -1.7385186797348353 0.6432490249699392" fill="none" transform="matrix(1,0,0,1,0,0)" fill-rule="nonzero" stroke-dasharray="none" stroke-miterlimit="10" stroke-linejoin="miter" stroke-linecap="butt" stroke-width="0.017808053548879037" stroke="#f68712"></path></g><g clip-path="url(#q842e3da5-ad04-482c-897f-841b95bd8b16a5f04e1f-e718-4f54-a905-54095c30d93e)"><path d=" M -1.5796747830035478 0.2969525811657001 L -1.7051932351267671 0.6432490249699392" fill="none" transform="matrix(1,0,0,1,0,0)" fill-rule="nonzero" stroke-dasharray="none" stroke-miterlimit="10" stroke-linejoin="miter" stroke-linecap="butt" stroke-width="0.017808053548879037" stroke="#f68712"></path></g><g clip-path="url(#r842e3da5-ad04-482c-897f-841b95bd8b16a5f04e1f-e718-4f54-a905-54095c30d93e)"><path d=" M -1.5463493383954794 0.2969525811657001 L -1.6718677905186987 0.6432490249699392" fill="none" transform="matrix(1,0,0,1,0,0)" fill-rule="nonzero" stroke-dasharray="none" stroke-miterlimit="10" stroke-linejoin="miter" stroke-linecap="butt" stroke-width="0.017808053548879037" stroke="#f68712"></path></g><g clip-path="url(#t842e3da5-ad04-482c-897f-841b95bd8b16a5f04e1f-e718-4f54-a905-54095c30d93e)"><path d=" M -1.5130238937874112 0.2969525811657001 L -1.6385423459106305 0.6432490249699392" fill="none" transform="matrix(1,0,0,1,0,0)" fill-rule="nonzero" stroke-dasharray="none" stroke-miterlimit="10" stroke-linejoin="miter" stroke-linecap="butt" stroke-width="0.017808053548879037" stroke="#f68712"></path></g><g clip-path="url(#v842e3da5-ad04-482c-897f-841b95bd8b16a5f04e1f-e718-4f54-a905-54095c30d93e)"><path d=" M -1.4797107645690726 0.2969525811657001 L -1.605229216692292 0.6432490249699392" fill="none" transform="matrix(1,0,0,1,0,0)" fill-rule="nonzero" stroke-dasharray="none" stroke-miterlimit="10" stroke-linejoin="miter" stroke-linecap="butt" stroke-width="0.017808053548879037" stroke="#f68712"></path></g><g clip-path="url(#x842e3da5-ad04-482c-897f-841b95bd8b16a5f04e1f-e718-4f54-a905-54095c30d93e)"><path d=" M -1.4463853199610044 0.2969525811657001 L -1.5719037720842235 0.6432490249699392" fill="none" transform="matrix(1,0,0,1,0,0)" fill-rule="nonzero" stroke-dasharray="none" stroke-miterlimit="10" stroke-linejoin="miter" stroke-linecap="butt" stroke-width="0.017808053548879037" stroke="#f68712"></path></g><g clip-path="url(#y842e3da5-ad04-482c-897f-841b95bd8b16a5f04e1f-e718-4f54-a905-54095c30d93e)"><path d=" M -1.413059875352936 0.2969525811657001 L -1.5385783274761553 0.6432490249699392" fill="none" transform="matrix(1,0,0,1,0,0)" fill-rule="nonzero" stroke-dasharray="none" stroke-miterlimit="10" stroke-linejoin="miter" stroke-linecap="butt" stroke-width="0.017808053548879037" stroke="#f68712"></path></g><g clip-path="url(#b842e3da5-ad04-482c-897f-841b95bd8b16a5f04e1f-e718-4f54-a905-54095c30d93e)"><path d=" M -0.9224393793085082 0.6097511649056576 C -0.9022175093726441 0.6097757956851165 -0.8807025235151809 0.6231379935416407 -0.8719339660277663 0.6404041699424211 L -0.8351848430748927 0.6404041699424211 C -0.8389902985013129 0.6231379935416407 -0.8272044705301669 0.6097757956851165 -0.8069456544251141 0.6097265341261986 C -0.7867237844892503 0.6097511649056576 -0.7652087986317873 0.6231133627621817 -0.7564402411443722 0.640379539162962 L -0.7196911181914989 0.640379539162962 C -0.7234965736179191 0.6231256781519111 -0.7117107456467731 0.6097511649056576 -0.691439614151991 0.6097511649056576 C -0.6712054288263973 0.6097881110748461 -0.6496904429689343 0.6231379935416407 -0.6409342008712489 0.6404041699424211 L -0.6125349121549866 0.64042880072188 L -0.8481775792395312 -0.007015868138195175 L -0.8765645525660639 -0.00697892196900665 C -0.8727590971396437 0.010287254431773727 -0.8845326097210602 0.02364945228829774 -0.9047667950466538 0.023637136898568202 C -0.9250502419311653 0.023624821508838753 -0.9465529123988989 0.010274939042044191 -0.955321469886314 -0.007003552748465723 L -0.9920705928391873 -0.007003552748465723 C -0.9882651374127671 0.010250308262585203 -1.0000509653839131 0.023624821508838753 -1.0202605199300476 0.02364945228829765 C -1.0405439668145593 0.02364945228829765 -1.0620466372822928 0.01028725443177364 -1.0708151947697078 -0.006978921969006735 L -1.1075643177225813 -0.006978921969006735 C -1.1037588622961612 0.010274939042044191 -1.1155446902673072 0.02364945228829765 -1.1357665602031712 0.023624821508838663 C -1.1560007455287646 0.02360019072937959 -1.177564992945146 0.010262623652314569 -1.1863335504325607 -0.007003552748465808 L -1.214732839148823 -0.00701586813819526 L -0.9790778566745488 0.6404164853321505 L -0.9507031987377457 0.640379539162962 C -0.9545086541641659 0.6231133627621817 -0.9427228261930198 0.6097511649056576 -0.9224393793085082 0.6097511649056576" fill="#cce310" transform="matrix(1,0,0,1,0,0)" fill-rule="nonzero" stroke-dasharray="none" stroke-miterlimit="10" stroke-linejoin="miter" stroke-linecap="butt" stroke-width="0.003559147631829904" stroke="#cce310"></path></g><g clip-path="url(#I842e3da5-ad04-482c-897f-841b95bd8b16a5f04e1f-e718-4f54-a905-54095c30d93e)"><path d=" M -0.8035342914700385 0.11292371243755367 L -1.1718752828901096 0.11341632802673428" fill="none" transform="matrix(1,0,0,1,0,0)" fill-rule="nonzero" stroke-dasharray="none" stroke-miterlimit="10" stroke-linejoin="miter" stroke-linecap="butt" stroke-width="0.017808053548879037" stroke="#cce310"></path></g><g clip-path="url(#J842e3da5-ad04-482c-897f-841b95bd8b16a5f04e1f-e718-4f54-a905-54095c30d93e)"><path d=" M -0.7921425559702369 0.144241748519711 L -1.1604835473903081 0.1447343641088916" fill="none" transform="matrix(1,0,0,1,0,0)" fill-rule="nonzero" stroke-dasharray="none" stroke-miterlimit="10" stroke-linejoin="miter" stroke-linecap="butt" stroke-width="0.017808053548879037" stroke="#cce310"></path></g><g clip-path="url(#K842e3da5-ad04-482c-897f-841b95bd8b16a5f04e1f-e718-4f54-a905-54095c30d93e)"><path d=" M -0.7807385050807056 0.1755474692121388 L -1.149079496500777 0.1760400848013194" fill="none" transform="matrix(1,0,0,1,0,0)" fill-rule="nonzero" stroke-dasharray="none" stroke-miterlimit="10" stroke-linejoin="miter" stroke-linecap="butt" stroke-width="0.017808053548879037" stroke="#cce310"></path></g><g clip-path="url(#L842e3da5-ad04-482c-897f-841b95bd8b16a5f04e1f-e718-4f54-a905-54095c30d93e)"><path d=" M -0.7693467695809042 0.2068655052942958 L -1.1376877610009755 0.20735812088347638" fill="none" transform="matrix(1,0,0,1,0,0)" fill-rule="nonzero" stroke-dasharray="none" stroke-miterlimit="10" stroke-linejoin="miter" stroke-linecap="butt" stroke-width="0.017808053548879037" stroke="#cce310"></path></g><g clip-path="url(#M842e3da5-ad04-482c-897f-841b95bd8b16a5f04e1f-e718-4f54-a905-54095c30d93e)"><path d=" M -0.757942718691373 0.23818354137645312 L -1.1262837101114442 0.2386761569656337" fill="none" transform="matrix(1,0,0,1,0,0)" fill-rule="nonzero" stroke-dasharray="none" stroke-miterlimit="10" stroke-linejoin="miter" stroke-linecap="butt" stroke-width="0.017808053548879037" stroke="#cce310"></path></g><g clip-path="url(#N842e3da5-ad04-482c-897f-841b95bd8b16a5f04e1f-e718-4f54-a905-54095c30d93e)"><path d=" M -0.7465509831915715 0.2694892620688809 L -1.1148919746116426 0.26998187765806153" fill="none" transform="matrix(1,0,0,1,0,0)" fill-rule="nonzero" stroke-dasharray="none" stroke-miterlimit="10" stroke-linejoin="miter" stroke-linecap="butt" stroke-width="0.017808053548879037" stroke="#cce310"></path></g><g clip-path="url(#O842e3da5-ad04-482c-897f-841b95bd8b16a5f04e1f-e718-4f54-a905-54095c30d93e)"><path d=" M -0.7351592476917697 0.30079498276130867 L -1.103500239111841 0.3012875983504893" fill="none" transform="matrix(1,0,0,1,0,0)" fill-rule="nonzero" stroke-dasharray="none" stroke-miterlimit="10" stroke-linejoin="miter" stroke-linecap="butt" stroke-width="0.017808053548879037" stroke="#cce310"></path></g><g clip-path="url(#P842e3da5-ad04-482c-897f-841b95bd8b16a5f04e1f-e718-4f54-a905-54095c30d93e)"><path d=" M -0.7237551968022387 0.332113018843466 L -1.0920961882223097 0.3326056344326466" fill="none" transform="matrix(1,0,0,1,0,0)" fill-rule="nonzero" stroke-dasharray="none" stroke-miterlimit="10" stroke-linejoin="miter" stroke-linecap="butt" stroke-width="0.017808053548879037" stroke="#cce310"></path></g><g clip-path="url(#Q842e3da5-ad04-482c-897f-841b95bd8b16a5f04e1f-e718-4f54-a905-54095c30d93e)"><path d=" M -0.7123511459127077 0.363431054925623 L -1.080692137332779 0.3639236705148036" fill="none" transform="matrix(1,0,0,1,0,0)" fill-rule="nonzero" stroke-dasharray="none" stroke-miterlimit="10" stroke-linejoin="miter" stroke-linecap="butt" stroke-width="0.017808053548879037" stroke="#cce310"></path></g><g clip-path="url(#R842e3da5-ad04-482c-897f-841b95bd8b16a5f04e1f-e718-4f54-a905-54095c30d93e)"><path d=" M -0.700959410412906 0.394736775618051 L -1.069300401832977 0.3952293912072316" fill="none" transform="matrix(1,0,0,1,0,0)" fill-rule="nonzero" stroke-dasharray="none" stroke-miterlimit="10" stroke-linejoin="miter" stroke-linecap="butt" stroke-width="0.017808053548879037" stroke="#cce310"></path></g><g clip-path="url(#S842e3da5-ad04-482c-897f-841b95bd8b16a5f04e1f-e718-4f54-a905-54095c30d93e)"><path d=" M -0.6895676749131043 0.4260548117002083 L -1.0579086663331756 0.42654742728938894" fill="none" transform="matrix(1,0,0,1,0,0)" fill-rule="nonzero" stroke-dasharray="none" stroke-miterlimit="10" stroke-linejoin="miter" stroke-linecap="butt" stroke-width="0.017808053548879037" stroke="#cce310"></path></g><g clip-path="url(#T842e3da5-ad04-482c-897f-841b95bd8b16a5f04e1f-e718-4f54-a905-54095c30d93e)"><path d=" M -0.6781636240235733 0.4573728477823655 L -1.0465046154436444 0.4578654633715461" fill="none" transform="matrix(1,0,0,1,0,0)" fill-rule="nonzero" stroke-dasharray="none" stroke-miterlimit="10" stroke-linejoin="miter" stroke-linecap="butt" stroke-width="0.017808053548879037" stroke="#cce310"></path></g><g clip-path="url(#U842e3da5-ad04-482c-897f-841b95bd8b16a5f04e1f-e718-4f54-a905-54095c30d93e)"><path d=" M -0.6667842039135012 0.4886785684747931 L -1.0351251953335725 0.4891711840639737" fill="none" transform="matrix(1,0,0,1,0,0)" fill-rule="nonzero" stroke-dasharray="none" stroke-miterlimit="10" stroke-linejoin="miter" stroke-linecap="butt" stroke-width="0.017808053548879037" stroke="#cce310"></path></g><g clip-path="url(#V842e3da5-ad04-482c-897f-841b95bd8b16a5f04e1f-e718-4f54-a905-54095c30d93e)"><path d=" M -0.6553801530239702 0.5199966045569504 L -1.0237211444440413 0.5204892201461311" fill="none" transform="matrix(1,0,0,1,0,0)" fill-rule="nonzero" stroke-dasharray="none" stroke-miterlimit="10" stroke-linejoin="miter" stroke-linecap="butt" stroke-width="0.017808053548879037" stroke="#cce310"></path></g><g clip-path="url(#b842e3da5-ad04-482c-897f-841b95bd8b16a5f04e1f-e718-4f54-a905-54095c30d93e)"><path d=" M -0.8009603750165699 1.084238500404421 C -0.7955785497047716 1.1037337623462435 -0.8026968449684313 1.1280320262825771 -0.8169950124443988 1.1410986547855928 L -0.8071919622197046 1.1765054002579491 C -0.7915637326529497 1.1682294583597148 -0.7755414106148504 1.1760127846687682 -0.7700733775749455 1.1955203620003205 C -0.7646915522631474 1.215015623942143 -0.7718098475268071 1.2393138878784766 -0.7861080150027744 1.2523805163814923 L -0.7763049647780804 1.2877995772435784 C -0.7606767352113255 1.279523635345344 -0.7446544131732262 1.2873069616543975 -0.7392356416922394 1.306839169765409 C -0.7338538163804411 1.3263467470969608 -0.740972111644101 1.3506450110332944 -0.7552702791200683 1.3636993241465807 L -0.7476963144364164 1.3910764355152931 L -0.18677957381591526 0.9909740539828019 L -0.19440280005848543 0.963633888783278 C -0.21001871423551055 0.9719098306815123 -0.2260533516633394 0.9641388197621882 -0.2314351769751375 0.944631242430636 C -0.23685394845612406 0.9250867189298954 -0.22972333780273502 0.9008007703832913 -0.215425170326768 0.8877341418802757 L -0.2252405359411913 0.8523150810181899 C -0.24085645011821666 0.8605910229164241 -0.2568910875460457 0.8528076966073704 -0.26232217441676187 0.8333493808347364 C -0.26774094589774866 0.8138048573339958 -0.2606103352443594 0.7895065933976622 -0.24631216776839215 0.7764399648946464 L -0.2561275333828159 0.7410332194222901 C -0.27174344755984103 0.7493091613205243 -0.2877780849876699 0.7415258350114706 -0.293159910299468 0.7220305730696481 C -0.29854173561126607 0.7025353111278255 -0.29146038651679484 0.6781877856325739 -0.27714990365109826 0.6651211571295581 L -0.28472386833474994 0.6377563611505753 L -0.8456406089552511 1.0378587426830665 L -0.8380296981024107 1.0651865924928607 C -0.8224137839253853 1.0569106505946264 -0.8063791464975565 1.0646939769036803 -0.8009603750165699 1.084238500404421" fill="#50ade5" transform="matrix(1,0,0,1,0,0)" fill-rule="nonzero" stroke-dasharray="none" stroke-miterlimit="10" stroke-linejoin="miter" stroke-linecap="butt" stroke-width="0.003559147631829904" stroke="#50ade5"></path></g><g clip-path="url(#Y842e3da5-ad04-482c-897f-841b95bd8b16a5f04e1f-e718-4f54-a905-54095c30d93e)"><path d=" M -0.29042589377951544 1.066036354384197 L -0.38933078869725235 0.7112176608871336" fill="none" transform="matrix(1,0,0,1,0,0)" fill-rule="nonzero" stroke-dasharray="none" stroke-miterlimit="10" stroke-linejoin="miter" stroke-linecap="butt" stroke-width="0.017808053548879037" stroke="#50ade5"></path></g><g clip-path="url(#Z842e3da5-ad04-482c-897f-841b95bd8b16a5f04e1f-e718-4f54-a905-54095c30d93e)"><path d=" M -0.3175566973536377 1.085396147038995 L -0.41646159227137436 0.7305774535419315" fill="none" transform="matrix(1,0,0,1,0,0)" fill-rule="nonzero" stroke-dasharray="none" stroke-miterlimit="10" stroke-linejoin="miter" stroke-linecap="butt" stroke-width="0.017808053548879037" stroke="#50ade5"></path></g><g clip-path="url(#aa842e3da5-ad04-482c-897f-841b95bd8b16a5f04e1f-e718-4f54-a905-54095c30d93e)"><path d=" M -0.3446875009277597 1.1047436243040636 L -0.44359239584549637 0.7499249308070001" fill="none" transform="matrix(1,0,0,1,0,0)" fill-rule="nonzero" stroke-dasharray="none" stroke-miterlimit="10" stroke-linejoin="miter" stroke-linecap="butt" stroke-width="0.017808053548879037" stroke="#50ade5"></path></g><g clip-path="url(#ab842e3da5-ad04-482c-897f-841b95bd8b16a5f04e1f-e718-4f54-a905-54095c30d93e)"><path d=" M -0.37181830450188214 1.1240911015691322 L -0.4707231994196188 0.7692724080720685" fill="none" transform="matrix(1,0,0,1,0,0)" fill-rule="nonzero" stroke-dasharray="none" stroke-miterlimit="10" stroke-linejoin="miter" stroke-linecap="butt" stroke-width="0.017808053548879037" stroke="#50ade5"></path></g><g clip-path="url(#ac842e3da5-ad04-482c-897f-841b95bd8b16a5f04e1f-e718-4f54-a905-54095c30d93e)"><path d=" M -0.39894910807600414 1.1434385788342003 L -0.49785400299374083 0.7886198853371369" fill="none" transform="matrix(1,0,0,1,0,0)" fill-rule="nonzero" stroke-dasharray="none" stroke-miterlimit="10" stroke-linejoin="miter" stroke-linecap="butt" stroke-width="0.017808053548879037" stroke="#50ade5"></path></g><g clip-path="url(#ad842e3da5-ad04-482c-897f-841b95bd8b16a5f04e1f-e718-4f54-a905-54095c30d93e)"><path d=" M -0.4260675962603966 1.1627983714889987 L -0.5249724911781335 0.807979677991935" fill="none" transform="matrix(1,0,0,1,0,0)" fill-rule="nonzero" stroke-dasharray="none" stroke-miterlimit="10" stroke-linejoin="miter" stroke-linecap="butt" stroke-width="0.017808053548879037" stroke="#50ade5"></path></g><g clip-path="url(#ae842e3da5-ad04-482c-897f-841b95bd8b16a5f04e1f-e718-4f54-a905-54095c30d93e)"><path d=" M -0.4531983998345186 1.1821458487540668 L -0.5521032947522555 0.8273271552570034" fill="none" transform="matrix(1,0,0,1,0,0)" fill-rule="nonzero" stroke-dasharray="none" stroke-miterlimit="10" stroke-linejoin="miter" stroke-linecap="butt" stroke-width="0.017808053548879037" stroke="#50ade5"></path></g><g clip-path="url(#af842e3da5-ad04-482c-897f-841b95bd8b16a5f04e1f-e718-4f54-a905-54095c30d93e)"><path d=" M -0.4803292034086406 1.2014933260191354 L -0.5792340983263775 0.8466746325220718" fill="none" transform="matrix(1,0,0,1,0,0)" fill-rule="nonzero" stroke-dasharray="none" stroke-miterlimit="10" stroke-linejoin="miter" stroke-linecap="butt" stroke-width="0.017808053548879037" stroke="#50ade5"></path></g><g clip-path="url(#ag842e3da5-ad04-482c-897f-841b95bd8b16a5f04e1f-e718-4f54-a905-54095c30d93e)"><path d=" M -0.5074600069827628 1.220840803284204 L -0.6063649019004995 0.8660221097871403" fill="none" transform="matrix(1,0,0,1,0,0)" fill-rule="nonzero" stroke-dasharray="none" stroke-miterlimit="10" stroke-linejoin="miter" stroke-linecap="butt" stroke-width="0.017808053548879037" stroke="#50ade5"></path></g><g clip-path="url(#ah842e3da5-ad04-482c-897f-841b95bd8b16a5f04e1f-e718-4f54-a905-54095c30d93e)"><path d=" M -0.5345908105568848 1.2402005959390014 L -0.6334957054746215 0.8853819024419382" fill="none" transform="matrix(1,0,0,1,0,0)" fill-rule="nonzero" stroke-dasharray="none" stroke-miterlimit="10" stroke-linejoin="miter" stroke-linecap="butt" stroke-width="0.017808053548879037" stroke="#50ade5"></path></g><g clip-path="url(#ai842e3da5-ad04-482c-897f-841b95bd8b16a5f04e1f-e718-4f54-a905-54095c30d93e)"><path d=" M -0.5617092987412777 1.25954807320407 L -0.6606141936590144 0.9047293797070066" fill="none" transform="matrix(1,0,0,1,0,0)" fill-rule="nonzero" stroke-dasharray="none" stroke-miterlimit="10" stroke-linejoin="miter" stroke-linecap="butt" stroke-width="0.017808053548879037" stroke="#50ade5"></path></g><g clip-path="url(#aj842e3da5-ad04-482c-897f-841b95bd8b16a5f04e1f-e718-4f54-a905-54095c30d93e)"><path d=" M -0.5888401023153993 1.2788955504691386 L -0.687744997233136 0.9240768569720751" fill="none" transform="matrix(1,0,0,1,0,0)" fill-rule="nonzero" stroke-dasharray="none" stroke-miterlimit="10" stroke-linejoin="miter" stroke-linecap="butt" stroke-width="0.017808053548879037" stroke="#50ade5"></path></g><g clip-path="url(#ak842e3da5-ad04-482c-897f-841b95bd8b16a5f04e1f-e718-4f54-a905-54095c30d93e)"><path d=" M -0.6159709058895213 1.2982430277342072 L -0.7148758008072582 0.9434243342371434" fill="none" transform="matrix(1,0,0,1,0,0)" fill-rule="nonzero" stroke-dasharray="none" stroke-miterlimit="10" stroke-linejoin="miter" stroke-linecap="butt" stroke-width="0.017808053548879037" stroke="#50ade5"></path></g><g clip-path="url(#al842e3da5-ad04-482c-897f-841b95bd8b16a5f04e1f-e718-4f54-a905-54095c30d93e)"><path d=" M -0.6431017094636435 1.3176028203890051 L -0.7420066043813802 0.9627841268919416" fill="none" transform="matrix(1,0,0,1,0,0)" fill-rule="nonzero" stroke-dasharray="none" stroke-miterlimit="10" stroke-linejoin="miter" stroke-linecap="butt" stroke-width="0.017808053548879037" stroke="#50ade5"></path></g><g clip-path="url(#b842e3da5-ad04-482c-897f-841b95bd8b16a5f04e1f-e718-4f54-a905-54095c30d93e)"><path d=" M -1.2216540881768103 1.3544135202905259 C -1.2384399643781394 1.3657067326724914 -1.2637357748825637 1.3666550176816643 -1.2806694357606472 1.3572460599283147 L -1.3111377099514678 1.3777881299971457 C -1.298329704632772 1.389980365829366 -1.3006203671224619 1.4076406347014911 -1.3173939279340616 1.419020054811563 C -1.3341674887456614 1.4303132671935286 -1.3594756146398153 1.431261552202701 -1.3763969601281691 1.421840279059622 L -1.4068652343189898 1.4423946645181829 C -1.394057229000294 1.4545745849606737 -1.3963602068797134 1.4722471692225279 -1.4131707138605016 1.4835896431634112 C -1.429956590061831 1.4948705401556475 -1.4552524005662553 1.4958311405545497 -1.4721737460546094 1.4864098674114703 L -1.4957330866071719 1.5022844047728157 L -0.9383262320595827 1.9072636806381946 L -0.914816153065938 1.8913645124973906 C -0.9276241583846339 1.8791722766651704 -0.925333495894944 1.8614996924033163 -0.9085476196936149 1.8502064800213507 C -0.8917371127128264 1.8388763214701962 -0.8664289868186725 1.8379157210712944 -0.8495076413303186 1.8473369942143738 L -0.819039367139498 1.826794924145542 C -0.8318473724581938 1.8146026883133222 -0.829556709968504 1.7969301040514676 -0.8128200953260927 1.7856122608900429 C -0.7959972729555749 1.7742697869491595 -0.7707014624511508 1.773321501939987 -0.7537678015730673 1.7827304596933367 L -0.7233118427719762 1.7621883896245052 C -0.7361075327009425 1.7500084691820144 -0.7338168702112524 1.7323358849201602 -0.7170309940099233 1.7210426725381947 C -0.7002574331983236 1.709749460156229 -0.6749123611349812 1.7087519135881384 -0.6579910156466273 1.718160871341488 L -0.6344439904837942 1.7022986493698724 L -1.1918508450313832 1.2973193735044934 L -1.2153486086352983 1.3132185416452975 C -1.2025406033166024 1.3253984620877883 -1.2048435811960219 1.3430710463496425 -1.2216540881768103 1.3544135202905259" fill="#5e2590" transform="matrix(1,0,0,1,0,0)" fill-rule="nonzero" stroke-dasharray="none" stroke-miterlimit="10" stroke-linejoin="miter" stroke-linecap="butt" stroke-width="0.003559147631829904" stroke="#5e2590"></path></g><g clip-path="url(#ao842e3da5-ad04-482c-897f-841b95bd8b16a5f04e1f-e718-4f54-a905-54095c30d93e)"><path d=" M -1.0424035906637161 1.8327925189438163 L -0.737314440894435 1.6264112178566" fill="none" transform="matrix(1,0,0,1,0,0)" fill-rule="nonzero" stroke-dasharray="none" stroke-miterlimit="10" stroke-linejoin="miter" stroke-linecap="butt" stroke-width="0.017808053548879037" stroke="#5e2590"></path></g><g clip-path="url(#ap842e3da5-ad04-482c-897f-841b95bd8b16a5f04e1f-e718-4f54-a905-54095c30d93e)"><path d=" M -1.0693742941713544 1.8131987338841573 L -0.7642851444020735 1.606817432796941" fill="none" transform="matrix(1,0,0,1,0,0)" fill-rule="nonzero" stroke-dasharray="none" stroke-miterlimit="10" stroke-linejoin="miter" stroke-linecap="butt" stroke-width="0.017808053548879037" stroke="#5e2590"></path></g><g clip-path="url(#aq842e3da5-ad04-482c-897f-841b95bd8b16a5f04e1f-e718-4f54-a905-54095c30d93e)"><path d=" M -1.0963326822892632 1.793617264214228 L -0.7912435325199823 1.5872359631270117" fill="none" transform="matrix(1,0,0,1,0,0)" fill-rule="nonzero" stroke-dasharray="none" stroke-miterlimit="10" stroke-linejoin="miter" stroke-linecap="butt" stroke-width="0.017808053548879037" stroke="#5e2590"></path></g><g clip-path="url(#ar842e3da5-ad04-482c-897f-841b95bd8b16a5f04e1f-e718-4f54-a905-54095c30d93e)"><path d=" M -1.1232910704071721 1.774023479154569 L -0.8182019206378912 1.5676421780673526" fill="none" transform="matrix(1,0,0,1,0,0)" fill-rule="nonzero" stroke-dasharray="none" stroke-miterlimit="10" stroke-linejoin="miter" stroke-linecap="butt" stroke-width="0.017808053548879037" stroke="#5e2590"></path></g><g clip-path="url(#as842e3da5-ad04-482c-897f-841b95bd8b16a5f04e1f-e718-4f54-a905-54095c30d93e)"><path d=" M -1.1502494585250806 1.7544420094846402 L -0.8451479933660702 1.5480607083974238" fill="none" transform="matrix(1,0,0,1,0,0)" fill-rule="nonzero" stroke-dasharray="none" stroke-miterlimit="10" stroke-linejoin="miter" stroke-linecap="butt" stroke-width="0.017808053548879037" stroke="#5e2590"></path></g><g clip-path="url(#at842e3da5-ad04-482c-897f-841b95bd8b16a5f04e1f-e718-4f54-a905-54095c30d93e)"><path d=" M -1.1772078466429898 1.7348605398147106 L -0.8721186968737089 1.5284792387274941" fill="none" transform="matrix(1,0,0,1,0,0)" fill-rule="nonzero" stroke-dasharray="none" stroke-miterlimit="10" stroke-linejoin="miter" stroke-linecap="butt" stroke-width="0.017808053548879037" stroke="#5e2590"></path></g><g clip-path="url(#au842e3da5-ad04-482c-897f-841b95bd8b16a5f04e1f-e718-4f54-a905-54095c30d93e)"><path d=" M -1.2041662347608986 1.715266754755052 L -0.8990770849916174 1.5088854536678356" fill="none" transform="matrix(1,0,0,1,0,0)" fill-rule="nonzero" stroke-dasharray="none" stroke-miterlimit="10" stroke-linejoin="miter" stroke-linecap="butt" stroke-width="0.017808053548879037" stroke="#5e2590"></path></g><g clip-path="url(#av842e3da5-ad04-482c-897f-841b95bd8b16a5f04e1f-e718-4f54-a905-54095c30d93e)"><path d=" M -1.2311246228788075 1.6956852850851232 L -0.9260231577197968 1.4893039839979068" fill="none" transform="matrix(1,0,0,1,0,0)" fill-rule="nonzero" stroke-dasharray="none" stroke-miterlimit="10" stroke-linejoin="miter" stroke-linecap="butt" stroke-width="0.017808053548879037" stroke="#5e2590"></path></g><g clip-path="url(#aw842e3da5-ad04-482c-897f-841b95bd8b16a5f04e1f-e718-4f54-a905-54095c30d93e)"><path d=" M -1.2580830109967163 1.6760915000254641 L -0.9529938612274353 1.4697101989382477" fill="none" transform="matrix(1,0,0,1,0,0)" fill-rule="nonzero" stroke-dasharray="none" stroke-miterlimit="10" stroke-linejoin="miter" stroke-linecap="butt" stroke-width="0.017808053548879037" stroke="#5e2590"></path></g><g clip-path="url(#ax842e3da5-ad04-482c-897f-841b95bd8b16a5f04e1f-e718-4f54-a905-54095c30d93e)"><path d=" M -1.2850413991146252 1.656510030355535 L -0.9799522493453441 1.4501287292683185" fill="none" transform="matrix(1,0,0,1,0,0)" fill-rule="nonzero" stroke-dasharray="none" stroke-miterlimit="10" stroke-linejoin="miter" stroke-linecap="butt" stroke-width="0.017808053548879037" stroke="#5e2590"></path></g><g clip-path="url(#ay842e3da5-ad04-482c-897f-841b95bd8b16a5f04e1f-e718-4f54-a905-54095c30d93e)"><path d=" M -1.3119874718428046 1.6369285606856057 L -1.006886006683794 1.4305472595983892" fill="none" transform="matrix(1,0,0,1,0,0)" fill-rule="nonzero" stroke-dasharray="none" stroke-miterlimit="10" stroke-linejoin="miter" stroke-linecap="butt" stroke-width="0.017808053548879037" stroke="#5e2590"></path></g><g clip-path="url(#az842e3da5-ad04-482c-897f-841b95bd8b16a5f04e1f-e718-4f54-a905-54095c30d93e)"><path d=" M -1.338958175350443 1.617334775625947 L -1.033869025581162 1.4109534745387307" fill="none" transform="matrix(1,0,0,1,0,0)" fill-rule="nonzero" stroke-dasharray="none" stroke-miterlimit="10" stroke-linejoin="miter" stroke-linecap="butt" stroke-width="0.017808053548879037" stroke="#5e2590"></path></g><g clip-path="url(#aA842e3da5-ad04-482c-897f-841b95bd8b16a5f04e1f-e718-4f54-a905-54095c30d93e)"><path d=" M -1.3659165634683519 1.5977533059560178 L -1.0608274136990707 1.3913720048688014" fill="none" transform="matrix(1,0,0,1,0,0)" fill-rule="nonzero" stroke-dasharray="none" stroke-miterlimit="10" stroke-linejoin="miter" stroke-linecap="butt" stroke-width="0.017808053548879037" stroke="#5e2590"></path></g><g clip-path="url(#aB842e3da5-ad04-482c-897f-841b95bd8b16a5f04e1f-e718-4f54-a905-54095c30d93e)"><path d=" M -1.392862636196531 1.5781595208963588 L -1.0877734864272501 1.3717782198091424" fill="none" transform="matrix(1,0,0,1,0,0)" fill-rule="nonzero" stroke-dasharray="none" stroke-miterlimit="10" stroke-linejoin="miter" stroke-linecap="butt" stroke-width="0.017808053548879037" stroke="#5e2590"></path></g><g clip-path="url(#b842e3da5-ad04-482c-897f-841b95bd8b16a5f04e1f-e718-4f54-a905-54095c30d93e)"><path d=" M -1.5933202348238507 1.0403957129673467 C -1.6091824567954662 1.0278463308329706 -1.6178155449958564 1.0040529978755472 -1.6140100895694363 0.9850626669126346 L -1.6428650477056903 0.9623038266924904 C -1.6505621662866374 0.978215310223024 -1.6680869658717377 0.9814173115526981 -1.6840353955714598 0.96891719097724 C -1.6998976175430753 0.9563801242325934 -1.7085307057434655 0.932562160495711 -1.7047252503170454 0.9135718295327986 L -1.73356789306357 0.8908253047023839 C -1.7412773270342468 0.9067367882329176 -1.7588021266193468 0.9099387895625914 -1.7747259255396102 0.8973770920384859 C -1.7906004629009553 0.88482770990411 -1.7992212357116157 0.8610343769466865 -1.7954157802851958 0.842044045983774 L -1.8177066356956182 0.8244453540602967 L -2.033472263756725 1.4787743257791708 L -2.011169092956573 1.4963237561437301 C -2.0034596589858964 1.4804122726131963 -1.9859348594007964 1.4772102712835222 -1.9700603220394513 1.4897473380281694 C -1.954136523119188 1.502296720162545 -1.9455157503085274 1.5261146838994275 -1.9493212057349476 1.5451050148623402 L -1.9204662475986933 1.567851539692755 C -1.9127691290177462 1.5519400561622207 -1.8952320140429166 1.5487380548325471 -1.879345161291842 1.5612258600182756 C -1.8634213623715787 1.5737875575423814 -1.854800589560918 1.5975932058895341 -1.8586060449873383 1.6165835368524464 L -1.829751086851084 1.6393423770725906 C -1.822053968270137 1.6234308935420572 -1.8045291686850369 1.620228892212383 -1.7886546313236917 1.6327659589570294 C -1.7727800939623466 1.645303025701676 -1.764110059592768 1.6691333048282884 -1.767915515019188 1.6881236357912006 L -1.7456246596087654 1.705710012324948 L -1.5298590315476586 1.0513810406060742 L -1.5521622023478105 1.0338439256312446 C -1.5598716363184872 1.049755409161778 -1.5773964359035875 1.052957410491452 -1.5933202348238507 1.0403957129673467" fill="#da1259" transform="matrix(1,0,0,1,0,0)" fill-rule="nonzero"></path></g><g clip-path="url(#aE842e3da5-ad04-482c-897f-841b95bd8b16a5f04e1f-e718-4f54-a905-54095c30d93e)"><path d=" M -1.9942723782476781 1.3569504905748064 L -1.7047006195375864 1.5846004697248954" fill="none" transform="matrix(1,0,0,1,0,0)" fill-rule="nonzero" stroke-dasharray="none" stroke-miterlimit="10" stroke-linejoin="miter" stroke-linecap="butt" stroke-width="0.017808053548879037" stroke="#b8183b"></path></g><g clip-path="url(#aF842e3da5-ad04-482c-897f-841b95bd8b16a5f04e1f-e718-4f54-a905-54095c30d93e)"><path d=" M -1.983841243146779 1.3253122543596816 L -1.694269484436687 1.5529622335097706" fill="none" transform="matrix(1,0,0,1,0,0)" fill-rule="nonzero" stroke-dasharray="none" stroke-miterlimit="10" stroke-linejoin="miter" stroke-linecap="butt" stroke-width="0.017808053548879037" stroke="#b8183b"></path></g><g clip-path="url(#aG842e3da5-ad04-482c-897f-841b95bd8b16a5f04e1f-e718-4f54-a905-54095c30d93e)"><path d=" M -1.97339779265615 1.2936617027548274 L -1.683826033946058 1.5213116819049164" fill="none" transform="matrix(1,0,0,1,0,0)" fill-rule="nonzero" stroke-dasharray="none" stroke-miterlimit="10" stroke-linejoin="miter" stroke-linecap="butt" stroke-width="0.017808053548879037" stroke="#b8183b"></path></g><g clip-path="url(#aH842e3da5-ad04-482c-897f-841b95bd8b16a5f04e1f-e718-4f54-a905-54095c30d93e)"><path d=" M -1.96297897294498 1.2620111511499732 L -1.6734072142348881 1.4896611303000622" fill="none" transform="matrix(1,0,0,1,0,0)" fill-rule="nonzero" stroke-dasharray="none" stroke-miterlimit="10" stroke-linejoin="miter" stroke-linecap="butt" stroke-width="0.017808053548879037" stroke="#b8183b"></path></g><g clip-path="url(#aI842e3da5-ad04-482c-897f-841b95bd8b16a5f04e1f-e718-4f54-a905-54095c30d93e)"><path d=" M -1.952535522454351 1.230360599545119 L -1.6629637637442594 1.458010578695208" fill="none" transform="matrix(1,0,0,1,0,0)" fill-rule="nonzero" stroke-dasharray="none" stroke-miterlimit="10" stroke-linejoin="miter" stroke-linecap="butt" stroke-width="0.017808053548879037" stroke="#b8183b"></path></g><g clip-path="url(#aJ842e3da5-ad04-482c-897f-841b95bd8b16a5f04e1f-e718-4f54-a905-54095c30d93e)"><path d=" M -1.9421043873534516 1.1987100479402648 L -1.65253262864336 1.4263600270903538" fill="none" transform="matrix(1,0,0,1,0,0)" fill-rule="nonzero" stroke-dasharray="none" stroke-miterlimit="10" stroke-linejoin="miter" stroke-linecap="butt" stroke-width="0.017808053548879037" stroke="#b8183b"></path></g><g clip-path="url(#aK842e3da5-ad04-482c-897f-841b95bd8b16a5f04e1f-e718-4f54-a905-54095c30d93e)"><path d=" M -1.9316609368628228 1.1670718117251404 L -1.642089178152731 1.3947217908752294" fill="none" transform="matrix(1,0,0,1,0,0)" fill-rule="nonzero" stroke-dasharray="none" stroke-miterlimit="10" stroke-linejoin="miter" stroke-linecap="butt" stroke-width="0.017808053548879037" stroke="#b8183b"></path></g><g clip-path="url(#aL842e3da5-ad04-482c-897f-841b95bd8b16a5f04e1f-e718-4f54-a905-54095c30d93e)"><path d=" M -1.9212298017619234 1.1354212601202862 L -1.6316580430518315 1.3630712392703752" fill="none" transform="matrix(1,0,0,1,0,0)" fill-rule="nonzero" stroke-dasharray="none" stroke-miterlimit="10" stroke-linejoin="miter" stroke-linecap="butt" stroke-width="0.017808053548879037" stroke="#b8183b"></path></g><g clip-path="url(#aM842e3da5-ad04-482c-897f-841b95bd8b16a5f04e1f-e718-4f54-a905-54095c30d93e)"><path d=" M -1.9107863512712944 1.1037830239051614 L -1.6212145925612027 1.3314330030552504" fill="none" transform="matrix(1,0,0,1,0,0)" fill-rule="nonzero" stroke-dasharray="none" stroke-miterlimit="10" stroke-linejoin="miter" stroke-linecap="butt" stroke-width="0.017808053548879037" stroke="#b8183b"></path></g><g clip-path="url(#aN842e3da5-ad04-482c-897f-841b95bd8b16a5f04e1f-e718-4f54-a905-54095c30d93e)"><path d=" M -1.900355216170395 1.0721324723003072 L -1.610783457460303 1.2997824514503962" fill="none" transform="matrix(1,0,0,1,0,0)" fill-rule="nonzero" stroke-dasharray="none" stroke-miterlimit="10" stroke-linejoin="miter" stroke-linecap="butt" stroke-width="0.017808053548879037" stroke="#b8183b"></path></g><g clip-path="url(#aO842e3da5-ad04-482c-897f-841b95bd8b16a5f04e1f-e718-4f54-a905-54095c30d93e)"><path d=" M -1.8899240810694957 1.040481920695453 L -1.6003523223594038 1.2681318998455424" fill="none" transform="matrix(1,0,0,1,0,0)" fill-rule="nonzero" stroke-dasharray="none" stroke-miterlimit="10" stroke-linejoin="miter" stroke-linecap="butt" stroke-width="0.017808053548879037" stroke="#b8183b"></path></g><g clip-path="url(#aP842e3da5-ad04-482c-897f-841b95bd8b16a5f04e1f-e718-4f54-a905-54095c30d93e)"><path d=" M -1.8794806305788667 1.0088436844803286 L -1.5899088718687748 1.2364936636304176" fill="none" transform="matrix(1,0,0,1,0,0)" fill-rule="nonzero" stroke-dasharray="none" stroke-miterlimit="10" stroke-linejoin="miter" stroke-linecap="butt" stroke-width="0.017808053548879037" stroke="#b8183b"></path></g><g clip-path="url(#aQ842e3da5-ad04-482c-897f-841b95bd8b16a5f04e1f-e718-4f54-a905-54095c30d93e)"><path d=" M -1.8690494954779673 0.9771931328754742 L -1.5794777367678754 1.2048431120255634" fill="none" transform="matrix(1,0,0,1,0,0)" fill-rule="nonzero" stroke-dasharray="none" stroke-miterlimit="10" stroke-linejoin="miter" stroke-linecap="butt" stroke-width="0.017808053548879037" stroke="#b8183b"></path></g><g clip-path="url(#aR842e3da5-ad04-482c-897f-841b95bd8b16a5f04e1f-e718-4f54-a905-54095c30d93e)"><path d=" M -1.8586183603770678 0.9455548966603495 L -1.569046601666976 1.1732048758104385" fill="none" transform="matrix(1,0,0,1,0,0)" fill-rule="nonzero" stroke-dasharray="none" stroke-miterlimit="10" stroke-linejoin="miter" stroke-linecap="butt" stroke-width="0.017808053548879037" stroke="#b8183b"></path></g></g></g><defs><linearGradient id="gradient-fbfd2ad8-1bf1-46ec-b42a-72d5c83e8881" x1="0" y1="0" x2="1" y2="1"><stop stop-color="#e9ae3f" offset="0"></stop><stop stop-color="#bd2949" offset="1"></stop></linearGradient><clipPath id="SvgjsClipPath1001"><path d=" M -2.101385480420137 -0.008795441954109973 h 1.916385480420137 v 1.91783869640822 h -1.916385480420137 Z"></path></clipPath><clipPath id="b842e3da5-ad04-482c-897f-841b95bd8b16a5f04e1f-e718-4f54-a905-54095c30d93e"><path d=" M -2.1144582666180174 -0.14013291572452533 L -0.06929075579634025 -0.14013291572452533 L -0.06929075579634025 1.9962054252647539 L -2.1144582666180174 1.9962054252647539 Z"></path></clipPath><clipPath id="e842e3da5-ad04-482c-897f-841b95bd8b16a5f04e1f-e718-4f54-a905-54095c30d93e"><path d=" M -1.9924620159574395 0.28160760556272413 L -1.825563854343049 0.28160760556272413 L -1.825563854343049 0.6585940005729152 L -1.9924620159574395 0.6585940005729152 Z"></path></clipPath><clipPath id="f842e3da5-ad04-482c-897f-841b95bd8b16a5f04e1f-e718-4f54-a905-54095c30d93e"><path d=" M -1.9591365713493714 0.28160760556272413 L -1.7922507251247102 0.28160760556272413 L -1.7922507251247102 0.6585940005729152 L -1.9591242559596418 0.6585940005729152 Z"></path></clipPath><clipPath id="h842e3da5-ad04-482c-897f-841b95bd8b16a5f04e1f-e718-4f54-a905-54095c30d93e"><path d=" M -1.925811126741303 0.28160760556272413 L -1.758925280516642 0.28160760556272413 L -1.758925280516642 0.6585940005729152 L -1.925811126741303 0.6585940005729152 Z"></path></clipPath><clipPath id="j842e3da5-ad04-482c-897f-841b95bd8b16a5f04e1f-e718-4f54-a905-54095c30d93e"><path d=" M -1.8924856821332348 0.28160760556272413 L -1.7255998359085738 0.28160760556272413 L -1.7255998359085738 0.6585940005729152 L -1.8924856821332348 0.6585940005729152 Z"></path></clipPath><clipPath id="k842e3da5-ad04-482c-897f-841b95bd8b16a5f04e1f-e718-4f54-a905-54095c30d93e"><path d=" M -1.8591602375251666 0.28160760556272413 L -1.692286706690235 0.28160760556272413 L -1.692286706690235 0.6585940005729152 L -1.8591602375251666 0.6585940005729152 Z"></path></clipPath><clipPath id="m842e3da5-ad04-482c-897f-841b95bd8b16a5f04e1f-e718-4f54-a905-54095c30d93e"><path d=" M -1.825847108306828 0.28160760556272413 L -1.6589489466924374 0.28160760556272413 L -1.6589489466924374 0.6585940005729152 L -1.8258594236965573 0.6585940005729152 Z"></path></clipPath><clipPath id="n842e3da5-ad04-482c-897f-841b95bd8b16a5f04e1f-e718-4f54-a905-54095c30d93e"><path d=" M -1.792533979088489 0.28160760556272413 L -1.6256358174740986 0.28160760556272413 L -1.6256358174740986 0.6585940005729152 L -1.7925216636987598 0.6585940005729152 Z"></path></clipPath><clipPath id="o842e3da5-ad04-482c-897f-841b95bd8b16a5f04e1f-e718-4f54-a905-54095c30d93e"><path d=" M -1.7591962190906913 0.28160760556272413 L -1.5923103728660304 0.28160760556272413 L -1.5923103728660304 0.6585940005729152 L -1.7591962190906913 0.6585940005729152 Z"></path></clipPath><clipPath id="q842e3da5-ad04-482c-897f-841b95bd8b16a5f04e1f-e718-4f54-a905-54095c30d93e"><path d=" M -1.7258830898723527 0.28160760556272413 L -1.5589849282579622 0.28160760556272413 L -1.5589849282579622 0.6585940005729152 L -1.7258830898723527 0.6585940005729152 Z"></path></clipPath><clipPath id="r842e3da5-ad04-482c-897f-841b95bd8b16a5f04e1f-e718-4f54-a905-54095c30d93e"><path d=" M -1.6925576452642845 0.28160760556272413 L -1.525659483649894 0.28160760556272413 L -1.525659483649894 0.6585940005729152 L -1.6925330144848254 0.6585940005729152 Z"></path></clipPath><clipPath id="t842e3da5-ad04-482c-897f-841b95bd8b16a5f04e1f-e718-4f54-a905-54095c30d93e"><path d=" M -1.6592322006562161 0.28160760556272413 L -1.4923463544315552 0.28160760556272413 L -1.4923463544315552 0.6585940005729152 L -1.6592322006562161 0.6585940005729152 Z"></path></clipPath><clipPath id="v842e3da5-ad04-482c-897f-841b95bd8b16a5f04e1f-e718-4f54-a905-54095c30d93e"><path d=" M -1.625906756048148 0.28160760556272413 L -1.4590332252132165 0.28160760556272413 L -1.4590332252132165 0.6585940005729152 L -1.625906756048148 0.6585940005729152 Z"></path></clipPath><clipPath id="x842e3da5-ad04-482c-897f-841b95bd8b16a5f04e1f-e718-4f54-a905-54095c30d93e"><path d=" M -1.5925936268298093 0.28160760556272413 L -1.4256954652154188 0.28160760556272413 L -1.4256954652154188 0.6585940005729152 L -1.5925936268298093 0.6585940005729152 Z"></path></clipPath><clipPath id="y842e3da5-ad04-482c-897f-841b95bd8b16a5f04e1f-e718-4f54-a905-54095c30d93e"><path d=" M -1.559268182221741 0.28160760556272413 L -1.39238233599708 0.28160760556272413 L -1.39238233599708 0.6585940005729152 L -1.5592558668320113 0.6585940005729152 Z"></path></clipPath><clipPath id="I842e3da5-ad04-482c-897f-841b95bd8b16a5f04e1f-e718-4f54-a905-54095c30d93e"><path d=" M -1.1933779533578432 -0.029713131409691555 L -0.7820316210023048 -0.029713131409691555 L -0.7820316210023048 0.25605317187398 L -1.1933656379681137 0.25605317187398 Z"></path></clipPath><clipPath id="J842e3da5-ad04-482c-897f-841b95bd8b16a5f04e1f-e718-4f54-a905-54095c30d93e"><path d=" M -1.1819739024683122 0.0016049046724657748 L -0.7706398855025034 0.0016049046724657748 L -0.7706398855025034 0.287371207956137 L -1.1819739024683122 0.287371207956137 Z"></path></clipPath><clipPath id="K842e3da5-ad04-482c-897f-841b95bd8b16a5f04e1f-e718-4f54-a905-54095c30d93e"><path d=" M -1.1705821669685106 0.032910625364892886 L -0.7592481500027017 0.032910625364892886 L -0.7592481500027017 0.3186769286485648 L -1.1705821669685106 0.3186769286485648 Z"></path></clipPath><clipPath id="L842e3da5-ad04-482c-897f-841b95bd8b16a5f04e1f-e718-4f54-a905-54095c30d93e"><path d=" M -1.159190431468709 0.06422866144705022 L -0.7478440991131707 0.06422866144705022 L -0.7478440991131707 0.3499949647307221 L -1.1591781160789796 0.3499949647307221 Z"></path></clipPath><clipPath id="M842e3da5-ad04-482c-897f-841b95bd8b16a5f04e1f-e718-4f54-a905-54095c30d93e"><path d=" M -1.147786380579178 0.09554669752920755 L -0.7364523636133691 0.09554669752920755 L -0.7364523636133691 0.38130068542314993 L -1.147786380579178 0.38130068542314993 Z"></path></clipPath><clipPath id="N842e3da5-ad04-482c-897f-841b95bd8b16a5f04e1f-e718-4f54-a905-54095c30d93e"><path d=" M -1.1363946450793763 0.12685241822163534 L -0.7250483127238376 0.12685241822163534 L -0.7250483127238376 0.4126187215053071 L -1.1363823296896467 0.4126187215053071 Z"></path></clipPath><clipPath id="O842e3da5-ad04-482c-897f-841b95bd8b16a5f04e1f-e718-4f54-a905-54095c30d93e"><path d=" M -1.1249905941898453 0.15817045430379267 L -0.7136565772240362 0.15817045430379267 L -0.7136565772240362 0.4439367575874646 L -1.1249905941898453 0.4439367575874646 Z"></path></clipPath><clipPath id="P842e3da5-ad04-482c-897f-841b95bd8b16a5f04e1f-e718-4f54-a905-54095c30d93e"><path d=" M -1.1135865433003143 0.18947617499622046 L -0.7022648417242345 0.18947617499622046 L -0.7022648417242345 0.47524247827989236 L -1.1135988586900436 0.47524247827989236 Z"></path></clipPath><clipPath id="Q842e3da5-ad04-482c-897f-841b95bd8b16a5f04e1f-e718-4f54-a905-54095c30d93e"><path d=" M -1.1021948078005126 0.22079421107837746 L -0.6908607908347035 0.22079421107837746 L -0.6908607908347035 0.5065605143620492 L -1.1021948078005126 0.5065605143620492 Z"></path></clipPath><clipPath id="R842e3da5-ad04-482c-897f-841b95bd8b16a5f04e1f-e718-4f54-a905-54095c30d93e"><path d=" M -1.090803072300711 0.25209993177080525 L -0.6794690553349017 0.25209993177080525 L -0.6794690553349017 0.537866235054477 L -1.090803072300711 0.537866235054477 Z"></path></clipPath><clipPath id="S842e3da5-ad04-482c-897f-841b95bd8b16a5f04e1f-e718-4f54-a905-54095c30d93e"><path d=" M -1.0793990214111797 0.2834179678529626 L -0.6680650044453709 0.2834179678529626 L -0.6680650044453709 0.5691842711366343 L -1.07939902141118 0.5691842711366343 Z"></path></clipPath><clipPath id="T842e3da5-ad04-482c-897f-841b95bd8b16a5f04e1f-e718-4f54-a905-54095c30d93e"><path d=" M -1.0680196013011076 0.3147360039351199 L -0.656673268945569 0.3147360039351199 L -0.656673268945569 0.6004899918290622 L -1.068007285911378 0.6004899918290622 Z"></path></clipPath><clipPath id="U842e3da5-ad04-482c-897f-841b95bd8b16a5f04e1f-e718-4f54-a905-54095c30d93e"><path d=" M -1.0566155504115766 0.3460417246275477 L -0.6452692180560382 0.3460417246275477 L -0.6452692180560382 0.6318080279112195 L -1.0566032350218473 0.6318080279112195 Z"></path></clipPath><clipPath id="V842e3da5-ad04-482c-897f-841b95bd8b16a5f04e1f-e718-4f54-a905-54095c30d93e"><path d=" M -1.0452114995220454 0.37735976070970484 L -0.6338774825562363 0.37735976070970484 L -0.6338774825562363 0.6631260639933764 L -1.0452114995220454 0.6631260639933764 Z"></path></clipPath><clipPath id="Y842e3da5-ad04-482c-897f-841b95bd8b16a5f04e1f-e718-4f54-a905-54095c30d93e"><path d=" M -0.5172753725971864 0.6867223507151278 L -0.16249362526931144 0.6867223507151278 L -0.16249362526931144 1.0905439799459327 L -0.5172753725971864 1.0905439799459327 Z"></path></clipPath><clipPath id="Z842e3da5-ad04-482c-897f-841b95bd8b16a5f04e1f-e718-4f54-a905-54095c30d93e"><path d=" M -0.5444061761713084 0.7060698279801961 L -0.18961211345370388 0.7060698279801961 L -0.18961211345370388 1.1098914572110012 L -0.5444061761713084 1.1098914572110012 Z"></path></clipPath><clipPath id="aa842e3da5-ad04-482c-897f-841b95bd8b16a5f04e1f-e718-4f54-a905-54095c30d93e"><path d=" M -0.5715369797454304 0.725429620634994 L -0.2167429170278259 0.725429620634994 L -0.2167429170278259 1.1292512498657992 L -0.5715369797454302 1.1292512498657992 Z"></path></clipPath><clipPath id="ab842e3da5-ad04-482c-897f-841b95bd8b16a5f04e1f-e718-4f54-a905-54095c30d93e"><path d=" M -0.5986677833195526 0.7447647825103332 L -0.24387372060194812 0.7447647825103332 L -0.24387372060194812 1.1485987271308673 L -0.5986677833195522 1.1485987271308673 Z"></path></clipPath><clipPath id="ac842e3da5-ad04-482c-897f-841b95bd8b16a5f04e1f-e718-4f54-a905-54095c30d93e"><path d=" M -0.6257862715039451 0.7641245751651311 L -0.2710045241760701 0.7641245751651311 L -0.2710045241760701 1.1679462043959359 L -0.6257862715039448 1.1679462043959359 Z"></path></clipPath><clipPath id="ad842e3da5-ad04-482c-897f-841b95bd8b16a5f04e1f-e718-4f54-a905-54095c30d93e"><path d=" M -0.6529170750780671 0.7834720524301995 L -0.29813532775019214 0.7834720524301995 L -0.29813532775019214 1.187293681661004 L -0.6529170750780668 1.187293681661004 Z"></path></clipPath><clipPath id="ae842e3da5-ad04-482c-897f-841b95bd8b16a5f04e1f-e718-4f54-a905-54095c30d93e"><path d=" M -0.6800478786521891 0.802819529695268 L -0.3252538159345846 0.802819529695268 L -0.3252538159345846 1.2066411589260726 L -0.6800478786521889 1.2066411589260726 Z"></path></clipPath><clipPath id="af842e3da5-ad04-482c-897f-841b95bd8b16a5f04e1f-e718-4f54-a905-54095c30d93e"><path d=" M -0.7071786822263113 0.8221793223500657 L -0.3523846195087068 0.8221793223500657 L -0.3523846195087068 1.2260009515808705 L -0.7071786822263113 1.2260009515808705 Z"></path></clipPath><clipPath id="ag842e3da5-ad04-482c-897f-841b95bd8b16a5f04e1f-e718-4f54-a905-54095c30d93e"><path d=" M -0.7343094858004333 0.8415267996151345 L -0.3795154230828288 0.8415267996151345 L -0.3795154230828288 1.245348428845939 L -0.7343094858004333 1.245348428845939 Z"></path></clipPath><clipPath id="ah842e3da5-ad04-482c-897f-841b95bd8b16a5f04e1f-e718-4f54-a905-54095c30d93e"><path d=" M -0.761427973984826 0.8608742768802029 L -0.40664622665695105 0.8608742768802029 L -0.40664622665695105 1.2646959061110077 L -0.7614279739848258 1.2646959061110077 Z"></path></clipPath><clipPath id="ai842e3da5-ad04-482c-897f-841b95bd8b16a5f04e1f-e718-4f54-a905-54095c30d93e"><path d=" M -0.7885587775589478 0.8802340695350008 L -0.4337770302310733 0.8802340695350008 L -0.4337770302310733 1.2840556987658056 L -0.7885587775589478 1.2840556987658056 Z"></path></clipPath><clipPath id="aj842e3da5-ad04-482c-897f-841b95bd8b16a5f04e1f-e718-4f54-a905-54095c30d93e"><path d=" M -0.81568958113307 0.8995692314103397 L -0.4608955184154657 0.8995692314103397 L -0.4608955184154657 1.3034031760308737 L -0.81568958113307 1.3034031760308737 Z"></path></clipPath><clipPath id="ak842e3da5-ad04-482c-897f-841b95bd8b16a5f04e1f-e718-4f54-a905-54095c30d93e"><path d=" M -0.842820384707192 0.9189290240651377 L -0.48802632198958773 0.9189290240651377 L -0.48802632198958773 1.3227506532959423 L -0.842820384707192 1.3227506532959423 Z"></path></clipPath><clipPath id="al842e3da5-ad04-482c-897f-841b95bd8b16a5f04e1f-e718-4f54-a905-54095c30d93e"><path d=" M -0.8699388728915847 0.938276501330206 L -0.5151571255637097 0.938276501330206 L -0.5151571255637097 1.342098130561011 L -0.8699388728915847 1.342098130561011 Z"></path></clipPath><clipPath id="ao842e3da5-ad04-482c-897f-841b95bd8b16a5f04e1f-e718-4f54-a905-54095c30d93e"><path d=" M -1.068167385977862 1.5280482000869613 L -0.7115629609700187 1.5280482000869613 L -0.7115629609700187 1.9311309059339954 L -1.068167385977862 1.9311309059339954 Z"></path></clipPath><clipPath id="ap842e3da5-ad04-482c-897f-841b95bd8b16a5f04e1f-e718-4f54-a905-54095c30d93e"><path d=" M -1.0951257740957707 1.508466730417032 L -0.7385213490879274 1.508466730417032 L -0.7385213490879274 1.9115494362640661 L -1.0951257740957707 1.9115494362640661 Z"></path></clipPath><clipPath id="aq842e3da5-ad04-482c-897f-841b95bd8b16a5f04e1f-e718-4f54-a905-54095c30d93e"><path d=" M -1.1220841622136795 1.4888852607471028 L -0.7654797372058362 1.4888852607471028 L -0.7654797372058362 1.891967966594137 L -1.1220841622136795 1.891967966594137 Z"></path></clipPath><clipPath id="ar842e3da5-ad04-482c-897f-841b95bd8b16a5f04e1f-e718-4f54-a905-54095c30d93e"><path d=" M -1.1490425503315884 1.4692914756874442 L -0.7924381253237451 1.4692914756874442 L -0.7924381253237451 1.8723741815344779 L -1.1490425503315884 1.8723741815344779 Z"></path></clipPath><clipPath id="as842e3da5-ad04-482c-897f-841b95bd8b16a5f04e1f-e718-4f54-a905-54095c30d93e"><path d=" M -1.1760009384494974 1.4496976906277852 L -0.8193965134416541 1.4496976906277852 L -0.8193965134416541 1.8528050272542784 L -1.1760009384494974 1.8528050272542784 Z"></path></clipPath><clipPath id="at842e3da5-ad04-482c-897f-841b95bd8b16a5f04e1f-e718-4f54-a905-54095c30d93e"><path d=" M -1.202959326567406 1.4301162209578564 L -0.8463549015595628 1.4301162209578564 L -0.8463549015595628 1.83319892680489 L -1.202959326567406 1.83319892680489 Z"></path></clipPath><clipPath id="au842e3da5-ad04-482c-897f-841b95bd8b16a5f04e1f-e718-4f54-a905-54095c30d93e"><path d=" M -1.229917714685315 1.4105347512879272 L -0.8733132896774718 1.4105347512879272 L -0.8733132896774718 1.8136174571349608 L -1.229917714685315 1.8136174571349608 Z"></path></clipPath><clipPath id="av842e3da5-ad04-482c-897f-841b95bd8b16a5f04e1f-e718-4f54-a905-54095c30d93e"><path d=" M -1.2568761028032238 1.390953281617998 L -0.9002716777953805 1.390953281617998 L -0.9002716777953805 1.7940359874650316 L -1.2568761028032238 1.7940359874650316 Z"></path></clipPath><clipPath id="aw842e3da5-ad04-482c-897f-841b95bd8b16a5f04e1f-e718-4f54-a905-54095c30d93e"><path d=" M -1.2838344909211328 1.3713718119480687 L -0.9272300659132895 1.3713718119480687 L -0.9272300659132895 1.7744545177951023 L -1.2838344909211328 1.7744545177951023 Z"></path></clipPath><clipPath id="ax842e3da5-ad04-482c-897f-841b95bd8b16a5f04e1f-e718-4f54-a905-54095c30d93e"><path d=" M -1.3107928790390415 1.3517780268884096 L -0.9541884540311982 1.3517780268884096 L -0.9541884540311982 1.7548607327354437 L -1.3107928790390415 1.7548607327354437 Z"></path></clipPath><clipPath id="ay842e3da5-ad04-482c-897f-841b95bd8b16a5f04e1f-e718-4f54-a905-54095c30d93e"><path d=" M -1.3377512671569503 1.332184241828751 L -0.9811468421491072 1.332184241828751 L -0.9811468421491072 1.7352915784552438 L -1.3377512671569503 1.7352915784552438 Z"></path></clipPath><clipPath id="az842e3da5-ad04-482c-897f-841b95bd8b16a5f04e1f-e718-4f54-a905-54095c30d93e"><path d=" M -1.3647096552748592 1.3126027721588218 L -1.0081052302670162 1.3126027721588218 L -1.0081052302670162 1.7156854780058555 L -1.3646973398851299 1.7156854780058555 Z"></path></clipPath><clipPath id="aA842e3da5-ad04-482c-897f-841b95bd8b16a5f04e1f-e718-4f54-a905-54095c30d93e"><path d=" M -1.3916680433927682 1.2930213024888926 L -1.0350636183849249 1.2930213024888926 L -1.0350636183849249 1.6961040083359262 L -1.3916680433927682 1.6961040083359262 Z"></path></clipPath><clipPath id="aB842e3da5-ad04-482c-897f-841b95bd8b16a5f04e1f-e718-4f54-a905-54095c30d93e"><path d=" M -1.4186264315106771 1.2734275174292335 L -1.0620220065028338 1.2734275174292335 L -1.0620220065028338 1.6765102232762676 L -1.4186264315106771 1.6765102232762676 Z"></path></clipPath><clipPath id="aE842e3da5-ad04-482c-897f-841b95bd8b16a5f04e1f-e718-4f54-a905-54095c30d93e"><path d=" M -2.054642418701762 1.3325044419617185 L -1.6443428944732323 1.3325044419617185 L -1.6443428944732323 1.6090588337277127 L -2.054642418701762 1.6090588337277127 Z"></path></clipPath><clipPath id="aF842e3da5-ad04-482c-897f-841b95bd8b16a5f04e1f-e718-4f54-a905-54095c30d93e"><path d=" M -2.0441989682111332 1.3008538903568643 L -1.633911759372333 1.3008538903568643 L -1.633911759372333 1.5774082821228586 L -2.0441989682111332 1.5774082821228586 Z"></path></clipPath><clipPath id="aG842e3da5-ad04-482c-897f-841b95bd8b16a5f04e1f-e718-4f54-a905-54095c30d93e"><path d=" M -2.033767833110234 1.26920333875201 L -1.623468308881704 1.26920333875201 L -1.623468308881704 1.5457577305180044 L -2.033767833110234 1.5457577305180044 Z"></path></clipPath><clipPath id="aH842e3da5-ad04-482c-897f-841b95bd8b16a5f04e1f-e718-4f54-a905-54095c30d93e"><path d=" M -2.0233243826196046 1.2375651025368857 L -1.6130371737808047 1.2375651025368857 L -1.6130371737808047 1.5141071789131502 L -2.0233366980093344 1.5141071789131502 Z"></path></clipPath><clipPath id="aI842e3da5-ad04-482c-897f-841b95bd8b16a5f04e1f-e718-4f54-a905-54095c30d93e"><path d=" M -2.012893247518705 1.2059145509320315 L -1.6026060386799053 1.2059145509320315 L -1.6026060386799053 1.482456627308296 L -2.012893247518705 1.482456627308296 Z"></path></clipPath><clipPath id="aJ842e3da5-ad04-482c-897f-841b95bd8b16a5f04e1f-e718-4f54-a905-54095c30d93e"><path d=" M -2.0024621124178057 1.1742639993271773 L -1.5921625881892763 1.1742639993271773 L -1.5921625881892763 1.4508183910931716 L -2.0024621124178057 1.4508183910931716 Z"></path></clipPath><clipPath id="aK842e3da5-ad04-482c-897f-841b95bd8b16a5f04e1f-e718-4f54-a905-54095c30d93e"><path d=" M -1.9920309773169065 1.1426257631120524 L -1.5817314530883766 1.1426257631120524 L -1.5817314530883766 1.4191801548780467 L -1.9920309773169065 1.4191801548780467 Z"></path></clipPath><clipPath id="aL842e3da5-ad04-482c-897f-841b95bd8b16a5f04e1f-e718-4f54-a905-54095c30d93e"><path d=" M -1.9815875268262775 1.1109752115071982 L -1.5713003179874774 1.1109752115071982 L -1.5713003179874774 1.3875296032731925 L -1.9815752114365481 1.3875296032731925 Z"></path></clipPath><clipPath id="aM842e3da5-ad04-482c-897f-841b95bd8b16a5f04e1f-e718-4f54-a905-54095c30d93e"><path d=" M -1.971156391725378 1.079324659902344 L -1.5608568674968484 1.079324659902344 L -1.5608568674968484 1.3558790516683383 L -1.971156391725378 1.3558790516683383 Z"></path></clipPath><clipPath id="aN842e3da5-ad04-482c-897f-841b95bd8b16a5f04e1f-e718-4f54-a905-54095c30d93e"><path d=" M -1.9607252566244786 1.0476864236872196 L -1.5504134170062196 1.0476864236872196 L -1.5504134170062196 1.324240815453214 L -1.9607252566244786 1.324240815453214 Z"></path></clipPath><clipPath id="aO842e3da5-ad04-482c-897f-841b95bd8b16a5f04e1f-e718-4f54-a905-54095c30d93e"><path d=" M -1.9502941215235794 1.016035872082365 L -1.5399945972950495 1.016035872082365 L -1.5399945972950495 1.2925902638483597 L -1.9502818061338498 1.2925902638483597 Z"></path></clipPath><clipPath id="aP842e3da5-ad04-482c-897f-841b95bd8b16a5f04e1f-e718-4f54-a905-54095c30d93e"><path d=" M -1.9398506710329504 0.9843853204775113 L -1.5295511468044207 0.9843853204775113 L -1.5295511468044207 1.2609520276332349 L -1.9398506710329504 1.2609520276332349 Z"></path></clipPath><clipPath id="aQ842e3da5-ad04-482c-897f-841b95bd8b16a5f04e1f-e718-4f54-a905-54095c30d93e"><path d=" M -1.929419535932051 0.9527470842623864 L -1.5191200117035213 0.9527470842623864 L -1.5191200117035213 1.2293014760283807 L -1.929419535932051 1.2293014760283807 Z"></path></clipPath><clipPath id="aR842e3da5-ad04-482c-897f-841b95bd8b16a5f04e1f-e718-4f54-a905-54095c30d93e"><path d=" M -1.9189760854414222 0.9210965326575323 L -1.5086888766026219 0.9210965326575323 L -1.5086888766026219 1.1976509244235265 L -1.9189760854414222 1.1976509244235265 Z"></path></clipPath></defs></svg>